<?xml version="1.0" encoding="utf-8" standalone="no"?>
<!DOCTYPE svg PUBLIC "-//W3C//DTD SVG 1.1//EN"
  "http://www.w3.org/Graphics/SVG/1.1/DTD/svg11.dtd">
<!-- Created with matplotlib (https://matplotlib.org/) -->
<svg height="576pt" version="1.1" viewBox="0 0 633.59 576" width="633.59pt" xmlns="http://www.w3.org/2000/svg" xmlns:xlink="http://www.w3.org/1999/xlink">
 <defs>
  <style type="text/css">
*{stroke-linecap:butt;stroke-linejoin:round;}
  </style>
 </defs>
 <g id="figure_1">
  <g id="patch_1">
   <path d="M 0 576 
L 633.59 576 
L 633.59 0 
L 0 0 
z
" style="fill:#ffffff;"/>
  </g>
  <g id="axes_1">
   <g id="patch_2">
    <path d="M 58.233081 534.04 
L 569.6641 534.04 
L 569.6641 13.32 
L 58.233081 13.32 
z
" style="fill:#ffffff;"/>
   </g>
   <g id="PathCollection_1">
    <defs>
     <path d="M 0 4.472136 
C 1.186024 4.472136 2.323632 4.000923 3.162278 3.162278 
C 4.000923 2.323632 4.472136 1.186024 4.472136 0 
C 4.472136 -1.186024 4.000923 -2.323632 3.162278 -3.162278 
C 2.323632 -4.000923 1.186024 -4.472136 0 -4.472136 
C -1.186024 -4.472136 -2.323632 -4.000923 -3.162278 -3.162278 
C -4.000923 -2.323632 -4.472136 -1.186024 -4.472136 0 
C -4.472136 1.186024 -4.000923 2.323632 -3.162278 3.162278 
C -2.323632 4.000923 -1.186024 4.472136 0 4.472136 
z
" id="m62ce7396fa" style="stroke:#32cd32;stroke-opacity:0.8;"/>
    </defs>
    <g clip-path="url(#p2364095c13)">
     <use style="fill:#32cd32;fill-opacity:0.8;stroke:#32cd32;stroke-opacity:0.8;" x="176.486563" xlink:href="#m62ce7396fa" y="305.171565"/>
     <use style="fill:#32cd32;fill-opacity:0.8;stroke:#32cd32;stroke-opacity:0.8;" x="164.924587" xlink:href="#m62ce7396fa" y="342.997064"/>
     <use style="fill:#32cd32;fill-opacity:0.8;stroke:#32cd32;stroke-opacity:0.8;" x="159.923473" xlink:href="#m62ce7396fa" y="347.850762"/>
     <use style="fill:#32cd32;fill-opacity:0.8;stroke:#32cd32;stroke-opacity:0.8;" x="133.097744" xlink:href="#m62ce7396fa" y="222.715145"/>
     <use style="fill:#32cd32;fill-opacity:0.8;stroke:#32cd32;stroke-opacity:0.8;" x="220.262599" xlink:href="#m62ce7396fa" y="277.468094"/>
     <use style="fill:#32cd32;fill-opacity:0.8;stroke:#32cd32;stroke-opacity:0.8;" x="156.937786" xlink:href="#m62ce7396fa" y="192.219224"/>
    </g>
   </g>
   <g id="PathCollection_2">
    <defs>
     <path d="M 0 4.472136 
C 1.186024 4.472136 2.323632 4.000923 3.162278 3.162278 
C 4.000923 2.323632 4.472136 1.186024 4.472136 0 
C 4.472136 -1.186024 4.000923 -2.323632 3.162278 -3.162278 
C 2.323632 -4.000923 1.186024 -4.472136 0 -4.472136 
C -1.186024 -4.472136 -2.323632 -4.000923 -3.162278 -3.162278 
C -4.000923 -2.323632 -4.472136 -1.186024 -4.472136 0 
C -4.472136 1.186024 -4.000923 2.323632 -3.162278 3.162278 
C -2.323632 4.000923 -1.186024 4.472136 0 4.472136 
z
" id="m60da87bf32" style="stroke:#ffc0cb;stroke-opacity:0.8;"/>
    </defs>
    <g clip-path="url(#p2364095c13)">
     <use style="fill:#ffc0cb;fill-opacity:0.8;stroke:#ffc0cb;stroke-opacity:0.8;" x="120.953663" xlink:href="#m60da87bf32" y="74.285609"/>
     <use style="fill:#ffc0cb;fill-opacity:0.8;stroke:#ffc0cb;stroke-opacity:0.8;" x="503.820734" xlink:href="#m60da87bf32" y="157.187776"/>
     <use style="fill:#ffc0cb;fill-opacity:0.8;stroke:#ffc0cb;stroke-opacity:0.8;" x="84.634277" xlink:href="#m60da87bf32" y="41.833823"/>
    </g>
   </g>
   <g id="PathCollection_3">
    <defs>
     <path d="M 0 4.472136 
C 1.186024 4.472136 2.323632 4.000923 3.162278 3.162278 
C 4.000923 2.323632 4.472136 1.186024 4.472136 0 
C 4.472136 -1.186024 4.000923 -2.323632 3.162278 -3.162278 
C 2.323632 -4.000923 1.186024 -4.472136 0 -4.472136 
C -1.186024 -4.472136 -2.323632 -4.000923 -3.162278 -3.162278 
C -4.000923 -2.323632 -4.472136 -1.186024 -4.472136 0 
C -4.472136 1.186024 -4.000923 2.323632 -3.162278 3.162278 
C -2.323632 4.000923 -1.186024 4.472136 0 4.472136 
z
" id="m963a26569f" style="stroke:#ffd700;stroke-opacity:0.8;"/>
    </defs>
    <g clip-path="url(#p2364095c13)">
     <use style="fill:#ffd700;fill-opacity:0.8;stroke:#ffd700;stroke-opacity:0.8;" x="134.321701" xlink:href="#m963a26569f" y="456.503247"/>
     <use style="fill:#ffd700;fill-opacity:0.8;stroke:#ffd700;stroke-opacity:0.8;" x="104.529553" xlink:href="#m963a26569f" y="386.253635"/>
     <use style="fill:#ffd700;fill-opacity:0.8;stroke:#ffd700;stroke-opacity:0.8;" x="120.302806" xlink:href="#m963a26569f" y="434.406073"/>
     <use style="fill:#ffd700;fill-opacity:0.8;stroke:#ffd700;stroke-opacity:0.8;" x="176.917601" xlink:href="#m963a26569f" y="414.37541"/>
     <use style="fill:#ffd700;fill-opacity:0.8;stroke:#ffd700;stroke-opacity:0.8;" x="185.125273" xlink:href="#m963a26569f" y="445.634803"/>
     <use style="fill:#ffd700;fill-opacity:0.8;stroke:#ffd700;stroke-opacity:0.8;" x="176.931729" xlink:href="#m963a26569f" y="387.015957"/>
     <use style="fill:#ffd700;fill-opacity:0.8;stroke:#ffd700;stroke-opacity:0.8;" x="192.481684" xlink:href="#m963a26569f" y="300.406171"/>
     <use style="fill:#ffd700;fill-opacity:0.8;stroke:#ffd700;stroke-opacity:0.8;" x="543.241209" xlink:href="#m963a26569f" y="355.701181"/>
     <use style="fill:#ffd700;fill-opacity:0.8;stroke:#ffd700;stroke-opacity:0.8;" x="199.102546" xlink:href="#m963a26569f" y="272.344327"/>
    </g>
   </g>
   <g id="PathCollection_4">
    <defs>
     <path d="M 0 4.472136 
C 1.186024 4.472136 2.323632 4.000923 3.162278 3.162278 
C 4.000923 2.323632 4.472136 1.186024 4.472136 0 
C 4.472136 -1.186024 4.000923 -2.323632 3.162278 -3.162278 
C 2.323632 -4.000923 1.186024 -4.472136 0 -4.472136 
C -1.186024 -4.472136 -2.323632 -4.000923 -3.162278 -3.162278 
C -4.000923 -2.323632 -4.472136 -1.186024 -4.472136 0 
C -4.472136 1.186024 -4.000923 2.323632 -3.162278 3.162278 
C -2.323632 4.000923 -1.186024 4.472136 0 4.472136 
z
" id="m9daea5aa50" style="stroke:#b22222;stroke-opacity:0.8;"/>
    </defs>
    <g clip-path="url(#p2364095c13)">
     <use style="fill:#b22222;fill-opacity:0.8;stroke:#b22222;stroke-opacity:0.8;" x="123.404609" xlink:href="#m9daea5aa50" y="144.619842"/>
     <use style="fill:#b22222;fill-opacity:0.8;stroke:#b22222;stroke-opacity:0.8;" x="247.764091" xlink:href="#m9daea5aa50" y="289.975392"/>
     <use style="fill:#b22222;fill-opacity:0.8;stroke:#b22222;stroke-opacity:0.8;" x="150.651279" xlink:href="#m9daea5aa50" y="139.6769"/>
     <use style="fill:#b22222;fill-opacity:0.8;stroke:#b22222;stroke-opacity:0.8;" x="188.2415" xlink:href="#m9daea5aa50" y="390.452419"/>
     <use style="fill:#b22222;fill-opacity:0.8;stroke:#b22222;stroke-opacity:0.8;" x="185.125061" xlink:href="#m9daea5aa50" y="447.100532"/>
     <use style="fill:#b22222;fill-opacity:0.8;stroke:#b22222;stroke-opacity:0.8;" x="188.00676" xlink:href="#m9daea5aa50" y="449.332811"/>
    </g>
   </g>
   <g id="PathCollection_5">
    <defs>
     <path d="M 0 4.472136 
C 1.186024 4.472136 2.323632 4.000923 3.162278 3.162278 
C 4.000923 2.323632 4.472136 1.186024 4.472136 0 
C 4.472136 -1.186024 4.000923 -2.323632 3.162278 -3.162278 
C 2.323632 -4.000923 1.186024 -4.472136 0 -4.472136 
C -1.186024 -4.472136 -2.323632 -4.000923 -3.162278 -3.162278 
C -4.000923 -2.323632 -4.472136 -1.186024 -4.472136 0 
C -4.472136 1.186024 -4.000923 2.323632 -3.162278 3.162278 
C -2.323632 4.000923 -1.186024 4.472136 0 4.472136 
z
" id="m76bda49e25" style="stroke:#00ced1;stroke-opacity:0.8;"/>
    </defs>
    <g clip-path="url(#p2364095c13)">
     <use style="fill:#00ced1;fill-opacity:0.8;stroke:#00ced1;stroke-opacity:0.8;" x="237.576991" xlink:href="#m76bda49e25" y="465.898618"/>
     <use style="fill:#00ced1;fill-opacity:0.8;stroke:#00ced1;stroke-opacity:0.8;" x="215.006773" xlink:href="#m76bda49e25" y="507.520965"/>
     <use style="fill:#00ced1;fill-opacity:0.8;stroke:#00ced1;stroke-opacity:0.8;" x="214.636302" xlink:href="#m76bda49e25" y="427.538589"/>
     <use style="fill:#00ced1;fill-opacity:0.8;stroke:#00ced1;stroke-opacity:0.8;" x="193.406856" xlink:href="#m76bda49e25" y="305.419572"/>
     <use style="fill:#00ced1;fill-opacity:0.8;stroke:#00ced1;stroke-opacity:0.8;" x="194.804932" xlink:href="#m76bda49e25" y="382.51566"/>
     <use style="fill:#00ced1;fill-opacity:0.8;stroke:#00ced1;stroke-opacity:0.8;" x="193.112687" xlink:href="#m76bda49e25" y="367.961615"/>
     <use style="fill:#00ced1;fill-opacity:0.8;stroke:#00ced1;stroke-opacity:0.8;" x="126.360481" xlink:href="#m76bda49e25" y="79.927376"/>
     <use style="fill:#00ced1;fill-opacity:0.8;stroke:#00ced1;stroke-opacity:0.8;" x="466.765334" xlink:href="#m76bda49e25" y="88.402094"/>
     <use style="fill:#00ced1;fill-opacity:0.8;stroke:#00ced1;stroke-opacity:0.8;" x="113.469726" xlink:href="#m76bda49e25" y="39.839035"/>
    </g>
   </g>
   <g id="matplotlib.axis_1">
    <g id="xtick_1">
     <g id="line2d_1">
      <defs>
       <path d="M 0 0 
L 0 3.5 
" id="m342160c569" style="stroke:#000000;stroke-width:0.8;"/>
      </defs>
      <g>
       <use style="stroke:#000000;stroke-width:0.8;" x="122.986209" xlink:href="#m342160c569" y="534.04"/>
      </g>
     </g>
     <g id="text_1">
      <!-- −5 -->
      <defs>
       <path d="M 10.59375 35.5 
L 73.1875 35.5 
L 73.1875 27.203125 
L 10.59375 27.203125 
z
" id="DejaVuSans-8722"/>
       <path d="M 10.796875 72.90625 
L 49.515625 72.90625 
L 49.515625 64.59375 
L 19.828125 64.59375 
L 19.828125 46.734375 
Q 21.96875 47.46875 24.109375 47.828125 
Q 26.265625 48.1875 28.421875 48.1875 
Q 40.625 48.1875 47.75 41.5 
Q 54.890625 34.8125 54.890625 23.390625 
Q 54.890625 11.625 47.5625 5.09375 
Q 40.234375 -1.421875 26.90625 -1.421875 
Q 22.3125 -1.421875 17.546875 -0.640625 
Q 12.796875 0.140625 7.71875 1.703125 
L 7.71875 11.625 
Q 12.109375 9.234375 16.796875 8.0625 
Q 21.484375 6.890625 26.703125 6.890625 
Q 35.15625 6.890625 40.078125 11.328125 
Q 45.015625 15.765625 45.015625 23.390625 
Q 45.015625 31 40.078125 35.4375 
Q 35.15625 39.890625 26.703125 39.890625 
Q 22.75 39.890625 18.8125 39.015625 
Q 14.890625 38.140625 10.796875 36.28125 
z
" id="DejaVuSans-53"/>
      </defs>
      <g transform="translate(115.615115 548.638438)scale(0.1 -0.1)">
       <use xlink:href="#DejaVuSans-8722"/>
       <use x="83.789062" xlink:href="#DejaVuSans-53"/>
      </g>
     </g>
    </g>
    <g id="xtick_2">
     <g id="line2d_2">
      <g>
       <use style="stroke:#000000;stroke-width:0.8;" x="199.767543" xlink:href="#m342160c569" y="534.04"/>
      </g>
     </g>
     <g id="text_2">
      <!-- 0 -->
      <defs>
       <path d="M 31.78125 66.40625 
Q 24.171875 66.40625 20.328125 58.90625 
Q 16.5 51.421875 16.5 36.375 
Q 16.5 21.390625 20.328125 13.890625 
Q 24.171875 6.390625 31.78125 6.390625 
Q 39.453125 6.390625 43.28125 13.890625 
Q 47.125 21.390625 47.125 36.375 
Q 47.125 51.421875 43.28125 58.90625 
Q 39.453125 66.40625 31.78125 66.40625 
z
M 31.78125 74.21875 
Q 44.046875 74.21875 50.515625 64.515625 
Q 56.984375 54.828125 56.984375 36.375 
Q 56.984375 17.96875 50.515625 8.265625 
Q 44.046875 -1.421875 31.78125 -1.421875 
Q 19.53125 -1.421875 13.0625 8.265625 
Q 6.59375 17.96875 6.59375 36.375 
Q 6.59375 54.828125 13.0625 64.515625 
Q 19.53125 74.21875 31.78125 74.21875 
z
" id="DejaVuSans-48"/>
      </defs>
      <g transform="translate(196.586293 548.638438)scale(0.1 -0.1)">
       <use xlink:href="#DejaVuSans-48"/>
      </g>
     </g>
    </g>
    <g id="xtick_3">
     <g id="line2d_3">
      <g>
       <use style="stroke:#000000;stroke-width:0.8;" x="276.548876" xlink:href="#m342160c569" y="534.04"/>
      </g>
     </g>
     <g id="text_3">
      <!-- 5 -->
      <g transform="translate(273.367626 548.638438)scale(0.1 -0.1)">
       <use xlink:href="#DejaVuSans-53"/>
      </g>
     </g>
    </g>
    <g id="xtick_4">
     <g id="line2d_4">
      <g>
       <use style="stroke:#000000;stroke-width:0.8;" x="353.33021" xlink:href="#m342160c569" y="534.04"/>
      </g>
     </g>
     <g id="text_4">
      <!-- 10 -->
      <defs>
       <path d="M 12.40625 8.296875 
L 28.515625 8.296875 
L 28.515625 63.921875 
L 10.984375 60.40625 
L 10.984375 69.390625 
L 28.421875 72.90625 
L 38.28125 72.90625 
L 38.28125 8.296875 
L 54.390625 8.296875 
L 54.390625 0 
L 12.40625 0 
z
" id="DejaVuSans-49"/>
      </defs>
      <g transform="translate(346.96771 548.638438)scale(0.1 -0.1)">
       <use xlink:href="#DejaVuSans-49"/>
       <use x="63.623047" xlink:href="#DejaVuSans-48"/>
      </g>
     </g>
    </g>
    <g id="xtick_5">
     <g id="line2d_5">
      <g>
       <use style="stroke:#000000;stroke-width:0.8;" x="430.111544" xlink:href="#m342160c569" y="534.04"/>
      </g>
     </g>
     <g id="text_5">
      <!-- 15 -->
      <g transform="translate(423.749044 548.638438)scale(0.1 -0.1)">
       <use xlink:href="#DejaVuSans-49"/>
       <use x="63.623047" xlink:href="#DejaVuSans-53"/>
      </g>
     </g>
    </g>
    <g id="xtick_6">
     <g id="line2d_6">
      <g>
       <use style="stroke:#000000;stroke-width:0.8;" x="506.892878" xlink:href="#m342160c569" y="534.04"/>
      </g>
     </g>
     <g id="text_6">
      <!-- 20 -->
      <defs>
       <path d="M 19.1875 8.296875 
L 53.609375 8.296875 
L 53.609375 0 
L 7.328125 0 
L 7.328125 8.296875 
Q 12.9375 14.109375 22.625 23.890625 
Q 32.328125 33.6875 34.8125 36.53125 
Q 39.546875 41.84375 41.421875 45.53125 
Q 43.3125 49.21875 43.3125 52.78125 
Q 43.3125 58.59375 39.234375 62.25 
Q 35.15625 65.921875 28.609375 65.921875 
Q 23.96875 65.921875 18.8125 64.3125 
Q 13.671875 62.703125 7.8125 59.421875 
L 7.8125 69.390625 
Q 13.765625 71.78125 18.9375 73 
Q 24.125 74.21875 28.421875 74.21875 
Q 39.75 74.21875 46.484375 68.546875 
Q 53.21875 62.890625 53.21875 53.421875 
Q 53.21875 48.921875 51.53125 44.890625 
Q 49.859375 40.875 45.40625 35.40625 
Q 44.1875 33.984375 37.640625 27.21875 
Q 31.109375 20.453125 19.1875 8.296875 
z
" id="DejaVuSans-50"/>
      </defs>
      <g transform="translate(500.530378 548.638438)scale(0.1 -0.1)">
       <use xlink:href="#DejaVuSans-50"/>
       <use x="63.623047" xlink:href="#DejaVuSans-48"/>
      </g>
     </g>
    </g>
    <g id="text_7">
     <!-- PC1 -->
     <defs>
      <path d="M 19.671875 64.796875 
L 19.671875 37.40625 
L 32.078125 37.40625 
Q 38.96875 37.40625 42.71875 40.96875 
Q 46.484375 44.53125 46.484375 51.125 
Q 46.484375 57.671875 42.71875 61.234375 
Q 38.96875 64.796875 32.078125 64.796875 
z
M 9.8125 72.90625 
L 32.078125 72.90625 
Q 44.34375 72.90625 50.609375 67.359375 
Q 56.890625 61.8125 56.890625 51.125 
Q 56.890625 40.328125 50.609375 34.8125 
Q 44.34375 29.296875 32.078125 29.296875 
L 19.671875 29.296875 
L 19.671875 0 
L 9.8125 0 
z
" id="DejaVuSans-80"/>
      <path d="M 64.40625 67.28125 
L 64.40625 56.890625 
Q 59.421875 61.53125 53.78125 63.8125 
Q 48.140625 66.109375 41.796875 66.109375 
Q 29.296875 66.109375 22.65625 58.46875 
Q 16.015625 50.828125 16.015625 36.375 
Q 16.015625 21.96875 22.65625 14.328125 
Q 29.296875 6.6875 41.796875 6.6875 
Q 48.140625 6.6875 53.78125 8.984375 
Q 59.421875 11.28125 64.40625 15.921875 
L 64.40625 5.609375 
Q 59.234375 2.09375 53.4375 0.328125 
Q 47.65625 -1.421875 41.21875 -1.421875 
Q 24.65625 -1.421875 15.125 8.703125 
Q 5.609375 18.84375 5.609375 36.375 
Q 5.609375 53.953125 15.125 64.078125 
Q 24.65625 74.21875 41.21875 74.21875 
Q 47.75 74.21875 53.53125 72.484375 
Q 59.328125 70.75 64.40625 67.28125 
z
" id="DejaVuSans-67"/>
     </defs>
     <g transform="translate(304.26109 562.316563)scale(0.1 -0.1)">
      <use xlink:href="#DejaVuSans-80"/>
      <use x="60.302734" xlink:href="#DejaVuSans-67"/>
      <use x="130.126953" xlink:href="#DejaVuSans-49"/>
     </g>
    </g>
   </g>
   <g id="matplotlib.axis_2">
    <g id="ytick_1">
     <g id="line2d_7">
      <defs>
       <path d="M 0 0 
L -3.5 0 
" id="md81eb9ff6e" style="stroke:#000000;stroke-width:0.8;"/>
      </defs>
      <g>
       <use style="stroke:#000000;stroke-width:0.8;" x="58.233081" xlink:href="#md81eb9ff6e" y="514.102259"/>
      </g>
     </g>
     <g id="text_8">
      <!-- −10 -->
      <g transform="translate(30.128393 517.901478)scale(0.1 -0.1)">
       <use xlink:href="#DejaVuSans-8722"/>
       <use x="83.789062" xlink:href="#DejaVuSans-49"/>
       <use x="147.412109" xlink:href="#DejaVuSans-48"/>
      </g>
     </g>
    </g>
    <g id="ytick_2">
     <g id="line2d_8">
      <g>
       <use style="stroke:#000000;stroke-width:0.8;" x="58.233081" xlink:href="#md81eb9ff6e" y="407.665543"/>
      </g>
     </g>
     <g id="text_9">
      <!-- −5 -->
      <g transform="translate(36.490893 411.464762)scale(0.1 -0.1)">
       <use xlink:href="#DejaVuSans-8722"/>
       <use x="83.789062" xlink:href="#DejaVuSans-53"/>
      </g>
     </g>
    </g>
    <g id="ytick_3">
     <g id="line2d_9">
      <g>
       <use style="stroke:#000000;stroke-width:0.8;" x="58.233081" xlink:href="#md81eb9ff6e" y="301.228827"/>
      </g>
     </g>
     <g id="text_10">
      <!-- 0 -->
      <g transform="translate(44.870581 305.028046)scale(0.1 -0.1)">
       <use xlink:href="#DejaVuSans-48"/>
      </g>
     </g>
    </g>
    <g id="ytick_4">
     <g id="line2d_10">
      <g>
       <use style="stroke:#000000;stroke-width:0.8;" x="58.233081" xlink:href="#md81eb9ff6e" y="194.792111"/>
      </g>
     </g>
     <g id="text_11">
      <!-- 5 -->
      <g transform="translate(44.870581 198.591329)scale(0.1 -0.1)">
       <use xlink:href="#DejaVuSans-53"/>
      </g>
     </g>
    </g>
    <g id="ytick_5">
     <g id="line2d_11">
      <g>
       <use style="stroke:#000000;stroke-width:0.8;" x="58.233081" xlink:href="#md81eb9ff6e" y="88.355394"/>
      </g>
     </g>
     <g id="text_12">
      <!-- 10 -->
      <g transform="translate(38.508081 92.154613)scale(0.1 -0.1)">
       <use xlink:href="#DejaVuSans-49"/>
       <use x="63.623047" xlink:href="#DejaVuSans-48"/>
      </g>
     </g>
    </g>
    <g id="text_13">
     <!-- PC2 -->
     <g transform="translate(24.048706 283.3675)rotate(-90)scale(0.1 -0.1)">
      <use xlink:href="#DejaVuSans-80"/>
      <use x="60.302734" xlink:href="#DejaVuSans-67"/>
      <use x="130.126953" xlink:href="#DejaVuSans-50"/>
     </g>
    </g>
   </g>
   <g id="patch_3">
    <path d="M 58.233081 534.04 
L 58.233081 13.32 
" style="fill:none;stroke:#000000;stroke-linecap:square;stroke-linejoin:miter;stroke-width:0.8;"/>
   </g>
   <g id="patch_4">
    <path d="M 58.233081 534.04 
L 569.6641 534.04 
" style="fill:none;stroke:#000000;stroke-linecap:square;stroke-linejoin:miter;stroke-width:0.8;"/>
   </g>
   <g id="text_14">
    <!-- UW551 replicate 1 -->
    <defs>
     <path d="M 8.6875 72.90625 
L 18.609375 72.90625 
L 18.609375 28.609375 
Q 18.609375 16.890625 22.84375 11.734375 
Q 27.09375 6.59375 36.625 6.59375 
Q 46.09375 6.59375 50.34375 11.734375 
Q 54.59375 16.890625 54.59375 28.609375 
L 54.59375 72.90625 
L 64.5 72.90625 
L 64.5 27.390625 
Q 64.5 13.140625 57.4375 5.859375 
Q 50.390625 -1.421875 36.625 -1.421875 
Q 22.796875 -1.421875 15.734375 5.859375 
Q 8.6875 13.140625 8.6875 27.390625 
z
" id="DejaVuSans-85"/>
     <path d="M 3.328125 72.90625 
L 13.28125 72.90625 
L 28.609375 11.28125 
L 43.890625 72.90625 
L 54.984375 72.90625 
L 70.3125 11.28125 
L 85.59375 72.90625 
L 95.609375 72.90625 
L 77.296875 0 
L 64.890625 0 
L 49.515625 63.28125 
L 33.984375 0 
L 21.578125 0 
z
" id="DejaVuSans-87"/>
     <path id="DejaVuSans-32"/>
     <path d="M 41.109375 46.296875 
Q 39.59375 47.171875 37.8125 47.578125 
Q 36.03125 48 33.890625 48 
Q 26.265625 48 22.1875 43.046875 
Q 18.109375 38.09375 18.109375 28.8125 
L 18.109375 0 
L 9.078125 0 
L 9.078125 54.6875 
L 18.109375 54.6875 
L 18.109375 46.1875 
Q 20.953125 51.171875 25.484375 53.578125 
Q 30.03125 56 36.53125 56 
Q 37.453125 56 38.578125 55.875 
Q 39.703125 55.765625 41.0625 55.515625 
z
" id="DejaVuSans-114"/>
     <path d="M 56.203125 29.59375 
L 56.203125 25.203125 
L 14.890625 25.203125 
Q 15.484375 15.921875 20.484375 11.0625 
Q 25.484375 6.203125 34.421875 6.203125 
Q 39.59375 6.203125 44.453125 7.46875 
Q 49.3125 8.734375 54.109375 11.28125 
L 54.109375 2.78125 
Q 49.265625 0.734375 44.1875 -0.34375 
Q 39.109375 -1.421875 33.890625 -1.421875 
Q 20.796875 -1.421875 13.15625 6.1875 
Q 5.515625 13.8125 5.515625 26.8125 
Q 5.515625 40.234375 12.765625 48.109375 
Q 20.015625 56 32.328125 56 
Q 43.359375 56 49.78125 48.890625 
Q 56.203125 41.796875 56.203125 29.59375 
z
M 47.21875 32.234375 
Q 47.125 39.59375 43.09375 43.984375 
Q 39.0625 48.390625 32.421875 48.390625 
Q 24.90625 48.390625 20.390625 44.140625 
Q 15.875 39.890625 15.1875 32.171875 
z
" id="DejaVuSans-101"/>
     <path d="M 18.109375 8.203125 
L 18.109375 -20.796875 
L 9.078125 -20.796875 
L 9.078125 54.6875 
L 18.109375 54.6875 
L 18.109375 46.390625 
Q 20.953125 51.265625 25.265625 53.625 
Q 29.59375 56 35.59375 56 
Q 45.5625 56 51.78125 48.09375 
Q 58.015625 40.1875 58.015625 27.296875 
Q 58.015625 14.40625 51.78125 6.484375 
Q 45.5625 -1.421875 35.59375 -1.421875 
Q 29.59375 -1.421875 25.265625 0.953125 
Q 20.953125 3.328125 18.109375 8.203125 
z
M 48.6875 27.296875 
Q 48.6875 37.203125 44.609375 42.84375 
Q 40.53125 48.484375 33.40625 48.484375 
Q 26.265625 48.484375 22.1875 42.84375 
Q 18.109375 37.203125 18.109375 27.296875 
Q 18.109375 17.390625 22.1875 11.75 
Q 26.265625 6.109375 33.40625 6.109375 
Q 40.53125 6.109375 44.609375 11.75 
Q 48.6875 17.390625 48.6875 27.296875 
z
" id="DejaVuSans-112"/>
     <path d="M 9.421875 75.984375 
L 18.40625 75.984375 
L 18.40625 0 
L 9.421875 0 
z
" id="DejaVuSans-108"/>
     <path d="M 9.421875 54.6875 
L 18.40625 54.6875 
L 18.40625 0 
L 9.421875 0 
z
M 9.421875 75.984375 
L 18.40625 75.984375 
L 18.40625 64.59375 
L 9.421875 64.59375 
z
" id="DejaVuSans-105"/>
     <path d="M 48.78125 52.59375 
L 48.78125 44.1875 
Q 44.96875 46.296875 41.140625 47.34375 
Q 37.3125 48.390625 33.40625 48.390625 
Q 24.65625 48.390625 19.8125 42.84375 
Q 14.984375 37.3125 14.984375 27.296875 
Q 14.984375 17.28125 19.8125 11.734375 
Q 24.65625 6.203125 33.40625 6.203125 
Q 37.3125 6.203125 41.140625 7.25 
Q 44.96875 8.296875 48.78125 10.40625 
L 48.78125 2.09375 
Q 45.015625 0.34375 40.984375 -0.53125 
Q 36.96875 -1.421875 32.421875 -1.421875 
Q 20.0625 -1.421875 12.78125 6.34375 
Q 5.515625 14.109375 5.515625 27.296875 
Q 5.515625 40.671875 12.859375 48.328125 
Q 20.21875 56 33.015625 56 
Q 37.15625 56 41.109375 55.140625 
Q 45.0625 54.296875 48.78125 52.59375 
z
" id="DejaVuSans-99"/>
     <path d="M 34.28125 27.484375 
Q 23.390625 27.484375 19.1875 25 
Q 14.984375 22.515625 14.984375 16.5 
Q 14.984375 11.71875 18.140625 8.90625 
Q 21.296875 6.109375 26.703125 6.109375 
Q 34.1875 6.109375 38.703125 11.40625 
Q 43.21875 16.703125 43.21875 25.484375 
L 43.21875 27.484375 
z
M 52.203125 31.203125 
L 52.203125 0 
L 43.21875 0 
L 43.21875 8.296875 
Q 40.140625 3.328125 35.546875 0.953125 
Q 30.953125 -1.421875 24.3125 -1.421875 
Q 15.921875 -1.421875 10.953125 3.296875 
Q 6 8.015625 6 15.921875 
Q 6 25.140625 12.171875 29.828125 
Q 18.359375 34.515625 30.609375 34.515625 
L 43.21875 34.515625 
L 43.21875 35.40625 
Q 43.21875 41.609375 39.140625 45 
Q 35.0625 48.390625 27.6875 48.390625 
Q 23 48.390625 18.546875 47.265625 
Q 14.109375 46.140625 10.015625 43.890625 
L 10.015625 52.203125 
Q 14.9375 54.109375 19.578125 55.046875 
Q 24.21875 56 28.609375 56 
Q 40.484375 56 46.34375 49.84375 
Q 52.203125 43.703125 52.203125 31.203125 
z
" id="DejaVuSans-97"/>
     <path d="M 18.3125 70.21875 
L 18.3125 54.6875 
L 36.8125 54.6875 
L 36.8125 47.703125 
L 18.3125 47.703125 
L 18.3125 18.015625 
Q 18.3125 11.328125 20.140625 9.421875 
Q 21.96875 7.515625 27.59375 7.515625 
L 36.8125 7.515625 
L 36.8125 0 
L 27.59375 0 
Q 17.1875 0 13.234375 3.875 
Q 9.28125 7.765625 9.28125 18.015625 
L 9.28125 47.703125 
L 2.6875 47.703125 
L 2.6875 54.6875 
L 9.28125 54.6875 
L 9.28125 70.21875 
z
" id="DejaVuSans-116"/>
    </defs>
    <g transform="translate(145.774029 315.815237)scale(0.1 -0.1)">
     <use xlink:href="#DejaVuSans-85"/>
     <use x="73.193359" xlink:href="#DejaVuSans-87"/>
     <use x="172.070312" xlink:href="#DejaVuSans-53"/>
     <use x="235.693359" xlink:href="#DejaVuSans-53"/>
     <use x="299.316406" xlink:href="#DejaVuSans-49"/>
     <use x="362.939453" xlink:href="#DejaVuSans-32"/>
     <use x="394.726562" xlink:href="#DejaVuSans-114"/>
     <use x="435.808594" xlink:href="#DejaVuSans-101"/>
     <use x="497.332031" xlink:href="#DejaVuSans-112"/>
     <use x="560.808594" xlink:href="#DejaVuSans-108"/>
     <use x="588.591797" xlink:href="#DejaVuSans-105"/>
     <use x="616.375" xlink:href="#DejaVuSans-99"/>
     <use x="671.355469" xlink:href="#DejaVuSans-97"/>
     <use x="732.634766" xlink:href="#DejaVuSans-116"/>
     <use x="771.84375" xlink:href="#DejaVuSans-101"/>
     <use x="833.367188" xlink:href="#DejaVuSans-32"/>
     <use x="865.154297" xlink:href="#DejaVuSans-49"/>
    </g>
   </g>
   <g id="text_15">
    <!-- UW551 replicate 3 -->
    <defs>
     <path d="M 40.578125 39.3125 
Q 47.65625 37.796875 51.625 33 
Q 55.609375 28.21875 55.609375 21.1875 
Q 55.609375 10.40625 48.1875 4.484375 
Q 40.765625 -1.421875 27.09375 -1.421875 
Q 22.515625 -1.421875 17.65625 -0.515625 
Q 12.796875 0.390625 7.625 2.203125 
L 7.625 11.71875 
Q 11.71875 9.328125 16.59375 8.109375 
Q 21.484375 6.890625 26.8125 6.890625 
Q 36.078125 6.890625 40.9375 10.546875 
Q 45.796875 14.203125 45.796875 21.1875 
Q 45.796875 27.640625 41.28125 31.265625 
Q 36.765625 34.90625 28.71875 34.90625 
L 20.21875 34.90625 
L 20.21875 43.015625 
L 29.109375 43.015625 
Q 36.375 43.015625 40.234375 45.921875 
Q 44.09375 48.828125 44.09375 54.296875 
Q 44.09375 59.90625 40.109375 62.90625 
Q 36.140625 65.921875 28.71875 65.921875 
Q 24.65625 65.921875 20.015625 65.03125 
Q 15.375 64.15625 9.8125 62.3125 
L 9.8125 71.09375 
Q 15.4375 72.65625 20.34375 73.4375 
Q 25.25 74.21875 29.59375 74.21875 
Q 40.828125 74.21875 47.359375 69.109375 
Q 53.90625 64.015625 53.90625 55.328125 
Q 53.90625 49.265625 50.4375 45.09375 
Q 46.96875 40.921875 40.578125 39.3125 
z
" id="DejaVuSans-51"/>
    </defs>
    <g transform="translate(134.212054 353.640735)scale(0.1 -0.1)">
     <use xlink:href="#DejaVuSans-85"/>
     <use x="73.193359" xlink:href="#DejaVuSans-87"/>
     <use x="172.070312" xlink:href="#DejaVuSans-53"/>
     <use x="235.693359" xlink:href="#DejaVuSans-53"/>
     <use x="299.316406" xlink:href="#DejaVuSans-49"/>
     <use x="362.939453" xlink:href="#DejaVuSans-32"/>
     <use x="394.726562" xlink:href="#DejaVuSans-114"/>
     <use x="435.808594" xlink:href="#DejaVuSans-101"/>
     <use x="497.332031" xlink:href="#DejaVuSans-112"/>
     <use x="560.808594" xlink:href="#DejaVuSans-108"/>
     <use x="588.591797" xlink:href="#DejaVuSans-105"/>
     <use x="616.375" xlink:href="#DejaVuSans-99"/>
     <use x="671.355469" xlink:href="#DejaVuSans-97"/>
     <use x="732.634766" xlink:href="#DejaVuSans-116"/>
     <use x="771.84375" xlink:href="#DejaVuSans-101"/>
     <use x="833.367188" xlink:href="#DejaVuSans-32"/>
     <use x="865.154297" xlink:href="#DejaVuSans-51"/>
    </g>
   </g>
   <g id="text_16">
    <!-- UW551 replicate 2 -->
    <g transform="translate(129.210939 358.494434)scale(0.1 -0.1)">
     <use xlink:href="#DejaVuSans-85"/>
     <use x="73.193359" xlink:href="#DejaVuSans-87"/>
     <use x="172.070312" xlink:href="#DejaVuSans-53"/>
     <use x="235.693359" xlink:href="#DejaVuSans-53"/>
     <use x="299.316406" xlink:href="#DejaVuSans-49"/>
     <use x="362.939453" xlink:href="#DejaVuSans-32"/>
     <use x="394.726562" xlink:href="#DejaVuSans-114"/>
     <use x="435.808594" xlink:href="#DejaVuSans-101"/>
     <use x="497.332031" xlink:href="#DejaVuSans-112"/>
     <use x="560.808594" xlink:href="#DejaVuSans-108"/>
     <use x="588.591797" xlink:href="#DejaVuSans-105"/>
     <use x="616.375" xlink:href="#DejaVuSans-99"/>
     <use x="671.355469" xlink:href="#DejaVuSans-97"/>
     <use x="732.634766" xlink:href="#DejaVuSans-116"/>
     <use x="771.84375" xlink:href="#DejaVuSans-101"/>
     <use x="833.367188" xlink:href="#DejaVuSans-32"/>
     <use x="865.154297" xlink:href="#DejaVuSans-50"/>
    </g>
   </g>
   <g id="text_17">
    <!-- RUN2340 replicate 1 -->
    <defs>
     <path d="M 44.390625 34.1875 
Q 47.5625 33.109375 50.5625 29.59375 
Q 53.5625 26.078125 56.59375 19.921875 
L 66.609375 0 
L 56 0 
L 46.6875 18.703125 
Q 43.0625 26.03125 39.671875 28.421875 
Q 36.28125 30.8125 30.421875 30.8125 
L 19.671875 30.8125 
L 19.671875 0 
L 9.8125 0 
L 9.8125 72.90625 
L 32.078125 72.90625 
Q 44.578125 72.90625 50.734375 67.671875 
Q 56.890625 62.453125 56.890625 51.90625 
Q 56.890625 45.015625 53.6875 40.46875 
Q 50.484375 35.9375 44.390625 34.1875 
z
M 19.671875 64.796875 
L 19.671875 38.921875 
L 32.078125 38.921875 
Q 39.203125 38.921875 42.84375 42.21875 
Q 46.484375 45.515625 46.484375 51.90625 
Q 46.484375 58.296875 42.84375 61.546875 
Q 39.203125 64.796875 32.078125 64.796875 
z
" id="DejaVuSans-82"/>
     <path d="M 9.8125 72.90625 
L 23.09375 72.90625 
L 55.421875 11.921875 
L 55.421875 72.90625 
L 64.984375 72.90625 
L 64.984375 0 
L 51.703125 0 
L 19.390625 60.984375 
L 19.390625 0 
L 9.8125 0 
z
" id="DejaVuSans-78"/>
     <path d="M 37.796875 64.3125 
L 12.890625 25.390625 
L 37.796875 25.390625 
z
M 35.203125 72.90625 
L 47.609375 72.90625 
L 47.609375 25.390625 
L 58.015625 25.390625 
L 58.015625 17.1875 
L 47.609375 17.1875 
L 47.609375 0 
L 37.796875 0 
L 37.796875 17.1875 
L 4.890625 17.1875 
L 4.890625 26.703125 
z
" id="DejaVuSans-52"/>
    </defs>
    <g transform="translate(90.241129 84.929281)scale(0.1 -0.1)">
     <use xlink:href="#DejaVuSans-82"/>
     <use x="69.482422" xlink:href="#DejaVuSans-85"/>
     <use x="142.675781" xlink:href="#DejaVuSans-78"/>
     <use x="217.480469" xlink:href="#DejaVuSans-50"/>
     <use x="281.103516" xlink:href="#DejaVuSans-51"/>
     <use x="344.726562" xlink:href="#DejaVuSans-52"/>
     <use x="408.349609" xlink:href="#DejaVuSans-48"/>
     <use x="471.972656" xlink:href="#DejaVuSans-32"/>
     <use x="503.759766" xlink:href="#DejaVuSans-114"/>
     <use x="544.841797" xlink:href="#DejaVuSans-101"/>
     <use x="606.365234" xlink:href="#DejaVuSans-112"/>
     <use x="669.841797" xlink:href="#DejaVuSans-108"/>
     <use x="697.625" xlink:href="#DejaVuSans-105"/>
     <use x="725.408203" xlink:href="#DejaVuSans-99"/>
     <use x="780.388672" xlink:href="#DejaVuSans-97"/>
     <use x="841.667969" xlink:href="#DejaVuSans-116"/>
     <use x="880.876953" xlink:href="#DejaVuSans-101"/>
     <use x="942.400391" xlink:href="#DejaVuSans-32"/>
     <use x="974.1875" xlink:href="#DejaVuSans-49"/>
    </g>
   </g>
   <g id="text_18">
    <!-- RUN2340 replicate 2 -->
    <g transform="translate(473.1082 167.831448)scale(0.1 -0.1)">
     <use xlink:href="#DejaVuSans-82"/>
     <use x="69.482422" xlink:href="#DejaVuSans-85"/>
     <use x="142.675781" xlink:href="#DejaVuSans-78"/>
     <use x="217.480469" xlink:href="#DejaVuSans-50"/>
     <use x="281.103516" xlink:href="#DejaVuSans-51"/>
     <use x="344.726562" xlink:href="#DejaVuSans-52"/>
     <use x="408.349609" xlink:href="#DejaVuSans-48"/>
     <use x="471.972656" xlink:href="#DejaVuSans-32"/>
     <use x="503.759766" xlink:href="#DejaVuSans-114"/>
     <use x="544.841797" xlink:href="#DejaVuSans-101"/>
     <use x="606.365234" xlink:href="#DejaVuSans-112"/>
     <use x="669.841797" xlink:href="#DejaVuSans-108"/>
     <use x="697.625" xlink:href="#DejaVuSans-105"/>
     <use x="725.408203" xlink:href="#DejaVuSans-99"/>
     <use x="780.388672" xlink:href="#DejaVuSans-97"/>
     <use x="841.667969" xlink:href="#DejaVuSans-116"/>
     <use x="880.876953" xlink:href="#DejaVuSans-101"/>
     <use x="942.400391" xlink:href="#DejaVuSans-32"/>
     <use x="974.1875" xlink:href="#DejaVuSans-50"/>
    </g>
   </g>
   <g id="text_19">
    <!-- RUN2340 replicate 3 -->
    <g transform="translate(53.921743 52.477495)scale(0.1 -0.1)">
     <use xlink:href="#DejaVuSans-82"/>
     <use x="69.482422" xlink:href="#DejaVuSans-85"/>
     <use x="142.675781" xlink:href="#DejaVuSans-78"/>
     <use x="217.480469" xlink:href="#DejaVuSans-50"/>
     <use x="281.103516" xlink:href="#DejaVuSans-51"/>
     <use x="344.726562" xlink:href="#DejaVuSans-52"/>
     <use x="408.349609" xlink:href="#DejaVuSans-48"/>
     <use x="471.972656" xlink:href="#DejaVuSans-32"/>
     <use x="503.759766" xlink:href="#DejaVuSans-114"/>
     <use x="544.841797" xlink:href="#DejaVuSans-101"/>
     <use x="606.365234" xlink:href="#DejaVuSans-112"/>
     <use x="669.841797" xlink:href="#DejaVuSans-108"/>
     <use x="697.625" xlink:href="#DejaVuSans-105"/>
     <use x="725.408203" xlink:href="#DejaVuSans-99"/>
     <use x="780.388672" xlink:href="#DejaVuSans-97"/>
     <use x="841.667969" xlink:href="#DejaVuSans-116"/>
     <use x="880.876953" xlink:href="#DejaVuSans-101"/>
     <use x="942.400391" xlink:href="#DejaVuSans-32"/>
     <use x="974.1875" xlink:href="#DejaVuSans-51"/>
    </g>
   </g>
   <g id="text_20">
    <!-- R24 replicate 2 -->
    <g transform="translate(103.609168 467.146918)scale(0.1 -0.1)">
     <use xlink:href="#DejaVuSans-82"/>
     <use x="69.482422" xlink:href="#DejaVuSans-50"/>
     <use x="133.105469" xlink:href="#DejaVuSans-52"/>
     <use x="196.728516" xlink:href="#DejaVuSans-32"/>
     <use x="228.515625" xlink:href="#DejaVuSans-114"/>
     <use x="269.597656" xlink:href="#DejaVuSans-101"/>
     <use x="331.121094" xlink:href="#DejaVuSans-112"/>
     <use x="394.597656" xlink:href="#DejaVuSans-108"/>
     <use x="422.380859" xlink:href="#DejaVuSans-105"/>
     <use x="450.164062" xlink:href="#DejaVuSans-99"/>
     <use x="505.144531" xlink:href="#DejaVuSans-97"/>
     <use x="566.423828" xlink:href="#DejaVuSans-116"/>
     <use x="605.632812" xlink:href="#DejaVuSans-101"/>
     <use x="667.15625" xlink:href="#DejaVuSans-32"/>
     <use x="698.943359" xlink:href="#DejaVuSans-50"/>
    </g>
   </g>
   <g id="text_21">
    <!-- R24 replicate 1 -->
    <g transform="translate(73.81702 396.897306)scale(0.1 -0.1)">
     <use xlink:href="#DejaVuSans-82"/>
     <use x="69.482422" xlink:href="#DejaVuSans-50"/>
     <use x="133.105469" xlink:href="#DejaVuSans-52"/>
     <use x="196.728516" xlink:href="#DejaVuSans-32"/>
     <use x="228.515625" xlink:href="#DejaVuSans-114"/>
     <use x="269.597656" xlink:href="#DejaVuSans-101"/>
     <use x="331.121094" xlink:href="#DejaVuSans-112"/>
     <use x="394.597656" xlink:href="#DejaVuSans-108"/>
     <use x="422.380859" xlink:href="#DejaVuSans-105"/>
     <use x="450.164062" xlink:href="#DejaVuSans-99"/>
     <use x="505.144531" xlink:href="#DejaVuSans-97"/>
     <use x="566.423828" xlink:href="#DejaVuSans-116"/>
     <use x="605.632812" xlink:href="#DejaVuSans-101"/>
     <use x="667.15625" xlink:href="#DejaVuSans-32"/>
     <use x="698.943359" xlink:href="#DejaVuSans-49"/>
    </g>
   </g>
   <g id="text_22">
    <!-- R24 replicate 3 -->
    <g transform="translate(89.590273 445.049744)scale(0.1 -0.1)">
     <use xlink:href="#DejaVuSans-82"/>
     <use x="69.482422" xlink:href="#DejaVuSans-50"/>
     <use x="133.105469" xlink:href="#DejaVuSans-52"/>
     <use x="196.728516" xlink:href="#DejaVuSans-32"/>
     <use x="228.515625" xlink:href="#DejaVuSans-114"/>
     <use x="269.597656" xlink:href="#DejaVuSans-101"/>
     <use x="331.121094" xlink:href="#DejaVuSans-112"/>
     <use x="394.597656" xlink:href="#DejaVuSans-108"/>
     <use x="422.380859" xlink:href="#DejaVuSans-105"/>
     <use x="450.164062" xlink:href="#DejaVuSans-99"/>
     <use x="505.144531" xlink:href="#DejaVuSans-97"/>
     <use x="566.423828" xlink:href="#DejaVuSans-116"/>
     <use x="605.632812" xlink:href="#DejaVuSans-101"/>
     <use x="667.15625" xlink:href="#DejaVuSans-32"/>
     <use x="698.943359" xlink:href="#DejaVuSans-51"/>
    </g>
   </g>
   <g id="text_23">
    <!-- PSS4 replicate 1 -->
    <defs>
     <path d="M 53.515625 70.515625 
L 53.515625 60.890625 
Q 47.90625 63.578125 42.921875 64.890625 
Q 37.9375 66.21875 33.296875 66.21875 
Q 25.25 66.21875 20.875 63.09375 
Q 16.5 59.96875 16.5 54.203125 
Q 16.5 49.359375 19.40625 46.890625 
Q 22.3125 44.4375 30.421875 42.921875 
L 36.375 41.703125 
Q 47.40625 39.59375 52.65625 34.296875 
Q 57.90625 29 57.90625 20.125 
Q 57.90625 9.515625 50.796875 4.046875 
Q 43.703125 -1.421875 29.984375 -1.421875 
Q 24.8125 -1.421875 18.96875 -0.25 
Q 13.140625 0.921875 6.890625 3.21875 
L 6.890625 13.375 
Q 12.890625 10.015625 18.65625 8.296875 
Q 24.421875 6.59375 29.984375 6.59375 
Q 38.421875 6.59375 43.015625 9.90625 
Q 47.609375 13.234375 47.609375 19.390625 
Q 47.609375 24.75 44.3125 27.78125 
Q 41.015625 30.8125 33.5 32.328125 
L 27.484375 33.5 
Q 16.453125 35.6875 11.515625 40.375 
Q 6.59375 45.0625 6.59375 53.421875 
Q 6.59375 63.09375 13.40625 68.65625 
Q 20.21875 74.21875 32.171875 74.21875 
Q 37.3125 74.21875 42.625 73.28125 
Q 47.953125 72.359375 53.515625 70.515625 
z
" id="DejaVuSans-83"/>
    </defs>
    <g transform="translate(92.692075 155.263514)scale(0.1 -0.1)">
     <use xlink:href="#DejaVuSans-80"/>
     <use x="60.302734" xlink:href="#DejaVuSans-83"/>
     <use x="123.779297" xlink:href="#DejaVuSans-83"/>
     <use x="187.255859" xlink:href="#DejaVuSans-52"/>
     <use x="250.878906" xlink:href="#DejaVuSans-32"/>
     <use x="282.666016" xlink:href="#DejaVuSans-114"/>
     <use x="323.748047" xlink:href="#DejaVuSans-101"/>
     <use x="385.271484" xlink:href="#DejaVuSans-112"/>
     <use x="448.748047" xlink:href="#DejaVuSans-108"/>
     <use x="476.53125" xlink:href="#DejaVuSans-105"/>
     <use x="504.314453" xlink:href="#DejaVuSans-99"/>
     <use x="559.294922" xlink:href="#DejaVuSans-97"/>
     <use x="620.574219" xlink:href="#DejaVuSans-116"/>
     <use x="659.783203" xlink:href="#DejaVuSans-101"/>
     <use x="721.306641" xlink:href="#DejaVuSans-32"/>
     <use x="753.09375" xlink:href="#DejaVuSans-49"/>
    </g>
   </g>
   <g id="text_24">
    <!-- PSS4 replicate 2 -->
    <g transform="translate(217.051558 300.619063)scale(0.1 -0.1)">
     <use xlink:href="#DejaVuSans-80"/>
     <use x="60.302734" xlink:href="#DejaVuSans-83"/>
     <use x="123.779297" xlink:href="#DejaVuSans-83"/>
     <use x="187.255859" xlink:href="#DejaVuSans-52"/>
     <use x="250.878906" xlink:href="#DejaVuSans-32"/>
     <use x="282.666016" xlink:href="#DejaVuSans-114"/>
     <use x="323.748047" xlink:href="#DejaVuSans-101"/>
     <use x="385.271484" xlink:href="#DejaVuSans-112"/>
     <use x="448.748047" xlink:href="#DejaVuSans-108"/>
     <use x="476.53125" xlink:href="#DejaVuSans-105"/>
     <use x="504.314453" xlink:href="#DejaVuSans-99"/>
     <use x="559.294922" xlink:href="#DejaVuSans-97"/>
     <use x="620.574219" xlink:href="#DejaVuSans-116"/>
     <use x="659.783203" xlink:href="#DejaVuSans-101"/>
     <use x="721.306641" xlink:href="#DejaVuSans-32"/>
     <use x="753.09375" xlink:href="#DejaVuSans-50"/>
    </g>
   </g>
   <g id="text_25">
    <!-- PSS4 replicate 3 -->
    <g transform="translate(119.938746 150.320572)scale(0.1 -0.1)">
     <use xlink:href="#DejaVuSans-80"/>
     <use x="60.302734" xlink:href="#DejaVuSans-83"/>
     <use x="123.779297" xlink:href="#DejaVuSans-83"/>
     <use x="187.255859" xlink:href="#DejaVuSans-52"/>
     <use x="250.878906" xlink:href="#DejaVuSans-32"/>
     <use x="282.666016" xlink:href="#DejaVuSans-114"/>
     <use x="323.748047" xlink:href="#DejaVuSans-101"/>
     <use x="385.271484" xlink:href="#DejaVuSans-112"/>
     <use x="448.748047" xlink:href="#DejaVuSans-108"/>
     <use x="476.53125" xlink:href="#DejaVuSans-105"/>
     <use x="504.314453" xlink:href="#DejaVuSans-99"/>
     <use x="559.294922" xlink:href="#DejaVuSans-97"/>
     <use x="620.574219" xlink:href="#DejaVuSans-116"/>
     <use x="659.783203" xlink:href="#DejaVuSans-101"/>
     <use x="721.306641" xlink:href="#DejaVuSans-32"/>
     <use x="753.09375" xlink:href="#DejaVuSans-51"/>
    </g>
   </g>
   <g id="text_26">
    <!-- Psi07 replicate 3 -->
    <defs>
     <path d="M 44.28125 53.078125 
L 44.28125 44.578125 
Q 40.484375 46.53125 36.375 47.5 
Q 32.28125 48.484375 27.875 48.484375 
Q 21.1875 48.484375 17.84375 46.4375 
Q 14.5 44.390625 14.5 40.28125 
Q 14.5 37.15625 16.890625 35.375 
Q 19.28125 33.59375 26.515625 31.984375 
L 29.59375 31.296875 
Q 39.15625 29.25 43.1875 25.515625 
Q 47.21875 21.78125 47.21875 15.09375 
Q 47.21875 7.46875 41.1875 3.015625 
Q 35.15625 -1.421875 24.609375 -1.421875 
Q 20.21875 -1.421875 15.453125 -0.5625 
Q 10.6875 0.296875 5.421875 2 
L 5.421875 11.28125 
Q 10.40625 8.6875 15.234375 7.390625 
Q 20.0625 6.109375 24.8125 6.109375 
Q 31.15625 6.109375 34.5625 8.28125 
Q 37.984375 10.453125 37.984375 14.40625 
Q 37.984375 18.0625 35.515625 20.015625 
Q 33.0625 21.96875 24.703125 23.78125 
L 21.578125 24.515625 
Q 13.234375 26.265625 9.515625 29.90625 
Q 5.8125 33.546875 5.8125 39.890625 
Q 5.8125 47.609375 11.28125 51.796875 
Q 16.75 56 26.8125 56 
Q 31.78125 56 36.171875 55.265625 
Q 40.578125 54.546875 44.28125 53.078125 
z
" id="DejaVuSans-115"/>
     <path d="M 8.203125 72.90625 
L 55.078125 72.90625 
L 55.078125 68.703125 
L 28.609375 0 
L 18.3125 0 
L 43.21875 64.59375 
L 8.203125 64.59375 
z
" id="DejaVuSans-55"/>
    </defs>
    <g transform="translate(146.205067 425.019081)scale(0.1 -0.1)">
     <use xlink:href="#DejaVuSans-80"/>
     <use x="60.287109" xlink:href="#DejaVuSans-115"/>
     <use x="112.386719" xlink:href="#DejaVuSans-105"/>
     <use x="140.169922" xlink:href="#DejaVuSans-48"/>
     <use x="203.792969" xlink:href="#DejaVuSans-55"/>
     <use x="267.416016" xlink:href="#DejaVuSans-32"/>
     <use x="299.203125" xlink:href="#DejaVuSans-114"/>
     <use x="340.285156" xlink:href="#DejaVuSans-101"/>
     <use x="401.808594" xlink:href="#DejaVuSans-112"/>
     <use x="465.285156" xlink:href="#DejaVuSans-108"/>
     <use x="493.068359" xlink:href="#DejaVuSans-105"/>
     <use x="520.851562" xlink:href="#DejaVuSans-99"/>
     <use x="575.832031" xlink:href="#DejaVuSans-97"/>
     <use x="637.111328" xlink:href="#DejaVuSans-116"/>
     <use x="676.320312" xlink:href="#DejaVuSans-101"/>
     <use x="737.84375" xlink:href="#DejaVuSans-32"/>
     <use x="769.630859" xlink:href="#DejaVuSans-51"/>
    </g>
   </g>
   <g id="text_27">
    <!-- Psi07 replicate 2 -->
    <g transform="translate(154.41274 456.278475)scale(0.1 -0.1)">
     <use xlink:href="#DejaVuSans-80"/>
     <use x="60.287109" xlink:href="#DejaVuSans-115"/>
     <use x="112.386719" xlink:href="#DejaVuSans-105"/>
     <use x="140.169922" xlink:href="#DejaVuSans-48"/>
     <use x="203.792969" xlink:href="#DejaVuSans-55"/>
     <use x="267.416016" xlink:href="#DejaVuSans-32"/>
     <use x="299.203125" xlink:href="#DejaVuSans-114"/>
     <use x="340.285156" xlink:href="#DejaVuSans-101"/>
     <use x="401.808594" xlink:href="#DejaVuSans-112"/>
     <use x="465.285156" xlink:href="#DejaVuSans-108"/>
     <use x="493.068359" xlink:href="#DejaVuSans-105"/>
     <use x="520.851562" xlink:href="#DejaVuSans-99"/>
     <use x="575.832031" xlink:href="#DejaVuSans-97"/>
     <use x="637.111328" xlink:href="#DejaVuSans-116"/>
     <use x="676.320312" xlink:href="#DejaVuSans-101"/>
     <use x="737.84375" xlink:href="#DejaVuSans-32"/>
     <use x="769.630859" xlink:href="#DejaVuSans-50"/>
    </g>
   </g>
   <g id="text_28">
    <!-- Psi07 replicate 1 -->
    <g transform="translate(146.219196 397.659629)scale(0.1 -0.1)">
     <use xlink:href="#DejaVuSans-80"/>
     <use x="60.287109" xlink:href="#DejaVuSans-115"/>
     <use x="112.386719" xlink:href="#DejaVuSans-105"/>
     <use x="140.169922" xlink:href="#DejaVuSans-48"/>
     <use x="203.792969" xlink:href="#DejaVuSans-55"/>
     <use x="267.416016" xlink:href="#DejaVuSans-32"/>
     <use x="299.203125" xlink:href="#DejaVuSans-114"/>
     <use x="340.285156" xlink:href="#DejaVuSans-101"/>
     <use x="401.808594" xlink:href="#DejaVuSans-112"/>
     <use x="465.285156" xlink:href="#DejaVuSans-108"/>
     <use x="493.068359" xlink:href="#DejaVuSans-105"/>
     <use x="520.851562" xlink:href="#DejaVuSans-99"/>
     <use x="575.832031" xlink:href="#DejaVuSans-97"/>
     <use x="637.111328" xlink:href="#DejaVuSans-116"/>
     <use x="676.320312" xlink:href="#DejaVuSans-101"/>
     <use x="737.84375" xlink:href="#DejaVuSans-32"/>
     <use x="769.630859" xlink:href="#DejaVuSans-49"/>
    </g>
   </g>
   <g id="text_29">
    <!-- GMI1000 replicate 1 -->
    <defs>
     <path d="M 59.515625 10.40625 
L 59.515625 29.984375 
L 43.40625 29.984375 
L 43.40625 38.09375 
L 69.28125 38.09375 
L 69.28125 6.78125 
Q 63.578125 2.734375 56.6875 0.65625 
Q 49.8125 -1.421875 42 -1.421875 
Q 24.90625 -1.421875 15.25 8.5625 
Q 5.609375 18.5625 5.609375 36.375 
Q 5.609375 54.25 15.25 64.234375 
Q 24.90625 74.21875 42 74.21875 
Q 49.125 74.21875 55.546875 72.453125 
Q 61.96875 70.703125 67.390625 67.28125 
L 67.390625 56.78125 
Q 61.921875 61.421875 55.765625 63.765625 
Q 49.609375 66.109375 42.828125 66.109375 
Q 29.4375 66.109375 22.71875 58.640625 
Q 16.015625 51.171875 16.015625 36.375 
Q 16.015625 21.625 22.71875 14.15625 
Q 29.4375 6.6875 42.828125 6.6875 
Q 48.046875 6.6875 52.140625 7.59375 
Q 56.25 8.5 59.515625 10.40625 
z
" id="DejaVuSans-71"/>
     <path d="M 9.8125 72.90625 
L 24.515625 72.90625 
L 43.109375 23.296875 
L 61.8125 72.90625 
L 76.515625 72.90625 
L 76.515625 0 
L 66.890625 0 
L 66.890625 64.015625 
L 48.09375 14.015625 
L 38.1875 14.015625 
L 19.390625 64.015625 
L 19.390625 0 
L 9.8125 0 
z
" id="DejaVuSans-77"/>
     <path d="M 9.8125 72.90625 
L 19.671875 72.90625 
L 19.671875 0 
L 9.8125 0 
z
" id="DejaVuSans-73"/>
    </defs>
    <g transform="translate(157.528966 401.096091)scale(0.1 -0.1)">
     <use xlink:href="#DejaVuSans-71"/>
     <use x="77.490234" xlink:href="#DejaVuSans-77"/>
     <use x="163.769531" xlink:href="#DejaVuSans-73"/>
     <use x="193.261719" xlink:href="#DejaVuSans-49"/>
     <use x="256.884766" xlink:href="#DejaVuSans-48"/>
     <use x="320.507812" xlink:href="#DejaVuSans-48"/>
     <use x="384.130859" xlink:href="#DejaVuSans-48"/>
     <use x="447.753906" xlink:href="#DejaVuSans-32"/>
     <use x="479.541016" xlink:href="#DejaVuSans-114"/>
     <use x="520.623047" xlink:href="#DejaVuSans-101"/>
     <use x="582.146484" xlink:href="#DejaVuSans-112"/>
     <use x="645.623047" xlink:href="#DejaVuSans-108"/>
     <use x="673.40625" xlink:href="#DejaVuSans-105"/>
     <use x="701.189453" xlink:href="#DejaVuSans-99"/>
     <use x="756.169922" xlink:href="#DejaVuSans-97"/>
     <use x="817.449219" xlink:href="#DejaVuSans-116"/>
     <use x="856.658203" xlink:href="#DejaVuSans-101"/>
     <use x="918.181641" xlink:href="#DejaVuSans-32"/>
     <use x="949.96875" xlink:href="#DejaVuSans-49"/>
    </g>
   </g>
   <g id="text_30">
    <!-- GMI1000 replicate 2 -->
    <g transform="translate(154.412527 457.744204)scale(0.1 -0.1)">
     <use xlink:href="#DejaVuSans-71"/>
     <use x="77.490234" xlink:href="#DejaVuSans-77"/>
     <use x="163.769531" xlink:href="#DejaVuSans-73"/>
     <use x="193.261719" xlink:href="#DejaVuSans-49"/>
     <use x="256.884766" xlink:href="#DejaVuSans-48"/>
     <use x="320.507812" xlink:href="#DejaVuSans-48"/>
     <use x="384.130859" xlink:href="#DejaVuSans-48"/>
     <use x="447.753906" xlink:href="#DejaVuSans-32"/>
     <use x="479.541016" xlink:href="#DejaVuSans-114"/>
     <use x="520.623047" xlink:href="#DejaVuSans-101"/>
     <use x="582.146484" xlink:href="#DejaVuSans-112"/>
     <use x="645.623047" xlink:href="#DejaVuSans-108"/>
     <use x="673.40625" xlink:href="#DejaVuSans-105"/>
     <use x="701.189453" xlink:href="#DejaVuSans-99"/>
     <use x="756.169922" xlink:href="#DejaVuSans-97"/>
     <use x="817.449219" xlink:href="#DejaVuSans-116"/>
     <use x="856.658203" xlink:href="#DejaVuSans-101"/>
     <use x="918.181641" xlink:href="#DejaVuSans-32"/>
     <use x="949.96875" xlink:href="#DejaVuSans-50"/>
    </g>
   </g>
   <g id="text_31">
    <!-- GMI1000 replicate 3 -->
    <g transform="translate(157.294226 459.976483)scale(0.1 -0.1)">
     <use xlink:href="#DejaVuSans-71"/>
     <use x="77.490234" xlink:href="#DejaVuSans-77"/>
     <use x="163.769531" xlink:href="#DejaVuSans-73"/>
     <use x="193.261719" xlink:href="#DejaVuSans-49"/>
     <use x="256.884766" xlink:href="#DejaVuSans-48"/>
     <use x="320.507812" xlink:href="#DejaVuSans-48"/>
     <use x="384.130859" xlink:href="#DejaVuSans-48"/>
     <use x="447.753906" xlink:href="#DejaVuSans-32"/>
     <use x="479.541016" xlink:href="#DejaVuSans-114"/>
     <use x="520.623047" xlink:href="#DejaVuSans-101"/>
     <use x="582.146484" xlink:href="#DejaVuSans-112"/>
     <use x="645.623047" xlink:href="#DejaVuSans-108"/>
     <use x="673.40625" xlink:href="#DejaVuSans-105"/>
     <use x="701.189453" xlink:href="#DejaVuSans-99"/>
     <use x="756.169922" xlink:href="#DejaVuSans-97"/>
     <use x="817.449219" xlink:href="#DejaVuSans-116"/>
     <use x="856.658203" xlink:href="#DejaVuSans-101"/>
     <use x="918.181641" xlink:href="#DejaVuSans-32"/>
     <use x="949.96875" xlink:href="#DejaVuSans-51"/>
    </g>
   </g>
   <g id="text_32">
    <!-- MOLK2 replicate 1 -->
    <defs>
     <path d="M 39.40625 66.21875 
Q 28.65625 66.21875 22.328125 58.203125 
Q 16.015625 50.203125 16.015625 36.375 
Q 16.015625 22.609375 22.328125 14.59375 
Q 28.65625 6.59375 39.40625 6.59375 
Q 50.140625 6.59375 56.421875 14.59375 
Q 62.703125 22.609375 62.703125 36.375 
Q 62.703125 50.203125 56.421875 58.203125 
Q 50.140625 66.21875 39.40625 66.21875 
z
M 39.40625 74.21875 
Q 54.734375 74.21875 63.90625 63.9375 
Q 73.09375 53.65625 73.09375 36.375 
Q 73.09375 19.140625 63.90625 8.859375 
Q 54.734375 -1.421875 39.40625 -1.421875 
Q 24.03125 -1.421875 14.8125 8.828125 
Q 5.609375 19.09375 5.609375 36.375 
Q 5.609375 53.65625 14.8125 63.9375 
Q 24.03125 74.21875 39.40625 74.21875 
z
" id="DejaVuSans-79"/>
     <path d="M 9.8125 72.90625 
L 19.671875 72.90625 
L 19.671875 8.296875 
L 55.171875 8.296875 
L 55.171875 0 
L 9.8125 0 
z
" id="DejaVuSans-76"/>
     <path d="M 9.8125 72.90625 
L 19.671875 72.90625 
L 19.671875 42.09375 
L 52.390625 72.90625 
L 65.09375 72.90625 
L 28.90625 38.921875 
L 67.671875 0 
L 54.6875 0 
L 19.671875 35.109375 
L 19.671875 0 
L 9.8125 0 
z
" id="DejaVuSans-75"/>
    </defs>
    <g transform="translate(102.38521 233.358816)scale(0.1 -0.1)">
     <use xlink:href="#DejaVuSans-77"/>
     <use x="86.279297" xlink:href="#DejaVuSans-79"/>
     <use x="164.990234" xlink:href="#DejaVuSans-76"/>
     <use x="220.703125" xlink:href="#DejaVuSans-75"/>
     <use x="286.279297" xlink:href="#DejaVuSans-50"/>
     <use x="349.902344" xlink:href="#DejaVuSans-32"/>
     <use x="381.689453" xlink:href="#DejaVuSans-114"/>
     <use x="422.771484" xlink:href="#DejaVuSans-101"/>
     <use x="484.294922" xlink:href="#DejaVuSans-112"/>
     <use x="547.771484" xlink:href="#DejaVuSans-108"/>
     <use x="575.554688" xlink:href="#DejaVuSans-105"/>
     <use x="603.337891" xlink:href="#DejaVuSans-99"/>
     <use x="658.318359" xlink:href="#DejaVuSans-97"/>
     <use x="719.597656" xlink:href="#DejaVuSans-116"/>
     <use x="758.806641" xlink:href="#DejaVuSans-101"/>
     <use x="820.330078" xlink:href="#DejaVuSans-32"/>
     <use x="852.117188" xlink:href="#DejaVuSans-49"/>
    </g>
   </g>
   <g id="text_33">
    <!-- MOLK2 replicate 2 -->
    <g transform="translate(189.550065 288.111766)scale(0.1 -0.1)">
     <use xlink:href="#DejaVuSans-77"/>
     <use x="86.279297" xlink:href="#DejaVuSans-79"/>
     <use x="164.990234" xlink:href="#DejaVuSans-76"/>
     <use x="220.703125" xlink:href="#DejaVuSans-75"/>
     <use x="286.279297" xlink:href="#DejaVuSans-50"/>
     <use x="349.902344" xlink:href="#DejaVuSans-32"/>
     <use x="381.689453" xlink:href="#DejaVuSans-114"/>
     <use x="422.771484" xlink:href="#DejaVuSans-101"/>
     <use x="484.294922" xlink:href="#DejaVuSans-112"/>
     <use x="547.771484" xlink:href="#DejaVuSans-108"/>
     <use x="575.554688" xlink:href="#DejaVuSans-105"/>
     <use x="603.337891" xlink:href="#DejaVuSans-99"/>
     <use x="658.318359" xlink:href="#DejaVuSans-97"/>
     <use x="719.597656" xlink:href="#DejaVuSans-116"/>
     <use x="758.806641" xlink:href="#DejaVuSans-101"/>
     <use x="820.330078" xlink:href="#DejaVuSans-32"/>
     <use x="852.117188" xlink:href="#DejaVuSans-50"/>
    </g>
   </g>
   <g id="text_34">
    <!-- MOLK2 replicate 3 -->
    <g transform="translate(126.225253 202.862896)scale(0.1 -0.1)">
     <use xlink:href="#DejaVuSans-77"/>
     <use x="86.279297" xlink:href="#DejaVuSans-79"/>
     <use x="164.990234" xlink:href="#DejaVuSans-76"/>
     <use x="220.703125" xlink:href="#DejaVuSans-75"/>
     <use x="286.279297" xlink:href="#DejaVuSans-50"/>
     <use x="349.902344" xlink:href="#DejaVuSans-32"/>
     <use x="381.689453" xlink:href="#DejaVuSans-114"/>
     <use x="422.771484" xlink:href="#DejaVuSans-101"/>
     <use x="484.294922" xlink:href="#DejaVuSans-112"/>
     <use x="547.771484" xlink:href="#DejaVuSans-108"/>
     <use x="575.554688" xlink:href="#DejaVuSans-105"/>
     <use x="603.337891" xlink:href="#DejaVuSans-99"/>
     <use x="658.318359" xlink:href="#DejaVuSans-97"/>
     <use x="719.597656" xlink:href="#DejaVuSans-116"/>
     <use x="758.806641" xlink:href="#DejaVuSans-101"/>
     <use x="820.330078" xlink:href="#DejaVuSans-32"/>
     <use x="852.117188" xlink:href="#DejaVuSans-51"/>
    </g>
   </g>
   <g id="text_35">
    <!-- K60 replicate 1 -->
    <defs>
     <path d="M 33.015625 40.375 
Q 26.375 40.375 22.484375 35.828125 
Q 18.609375 31.296875 18.609375 23.390625 
Q 18.609375 15.53125 22.484375 10.953125 
Q 26.375 6.390625 33.015625 6.390625 
Q 39.65625 6.390625 43.53125 10.953125 
Q 47.40625 15.53125 47.40625 23.390625 
Q 47.40625 31.296875 43.53125 35.828125 
Q 39.65625 40.375 33.015625 40.375 
z
M 52.59375 71.296875 
L 52.59375 62.3125 
Q 48.875 64.0625 45.09375 64.984375 
Q 41.3125 65.921875 37.59375 65.921875 
Q 27.828125 65.921875 22.671875 59.328125 
Q 17.53125 52.734375 16.796875 39.40625 
Q 19.671875 43.65625 24.015625 45.921875 
Q 28.375 48.1875 33.59375 48.1875 
Q 44.578125 48.1875 50.953125 41.515625 
Q 57.328125 34.859375 57.328125 23.390625 
Q 57.328125 12.15625 50.6875 5.359375 
Q 44.046875 -1.421875 33.015625 -1.421875 
Q 20.359375 -1.421875 13.671875 8.265625 
Q 6.984375 17.96875 6.984375 36.375 
Q 6.984375 53.65625 15.1875 63.9375 
Q 23.390625 74.21875 37.203125 74.21875 
Q 40.921875 74.21875 44.703125 73.484375 
Q 48.484375 72.75 52.59375 71.296875 
z
" id="DejaVuSans-54"/>
    </defs>
    <g transform="translate(206.864457 476.54229)scale(0.1 -0.1)">
     <use xlink:href="#DejaVuSans-75"/>
     <use x="65.576172" xlink:href="#DejaVuSans-54"/>
     <use x="129.199219" xlink:href="#DejaVuSans-48"/>
     <use x="192.822266" xlink:href="#DejaVuSans-32"/>
     <use x="224.609375" xlink:href="#DejaVuSans-114"/>
     <use x="265.691406" xlink:href="#DejaVuSans-101"/>
     <use x="327.214844" xlink:href="#DejaVuSans-112"/>
     <use x="390.691406" xlink:href="#DejaVuSans-108"/>
     <use x="418.474609" xlink:href="#DejaVuSans-105"/>
     <use x="446.257812" xlink:href="#DejaVuSans-99"/>
     <use x="501.238281" xlink:href="#DejaVuSans-97"/>
     <use x="562.517578" xlink:href="#DejaVuSans-116"/>
     <use x="601.726562" xlink:href="#DejaVuSans-101"/>
     <use x="663.25" xlink:href="#DejaVuSans-32"/>
     <use x="695.037109" xlink:href="#DejaVuSans-49"/>
    </g>
   </g>
   <g id="text_36">
    <!-- K60 replicate 2 -->
    <g transform="translate(184.29424 518.164637)scale(0.1 -0.1)">
     <use xlink:href="#DejaVuSans-75"/>
     <use x="65.576172" xlink:href="#DejaVuSans-54"/>
     <use x="129.199219" xlink:href="#DejaVuSans-48"/>
     <use x="192.822266" xlink:href="#DejaVuSans-32"/>
     <use x="224.609375" xlink:href="#DejaVuSans-114"/>
     <use x="265.691406" xlink:href="#DejaVuSans-101"/>
     <use x="327.214844" xlink:href="#DejaVuSans-112"/>
     <use x="390.691406" xlink:href="#DejaVuSans-108"/>
     <use x="418.474609" xlink:href="#DejaVuSans-105"/>
     <use x="446.257812" xlink:href="#DejaVuSans-99"/>
     <use x="501.238281" xlink:href="#DejaVuSans-97"/>
     <use x="562.517578" xlink:href="#DejaVuSans-116"/>
     <use x="601.726562" xlink:href="#DejaVuSans-101"/>
     <use x="663.25" xlink:href="#DejaVuSans-32"/>
     <use x="695.037109" xlink:href="#DejaVuSans-50"/>
    </g>
   </g>
   <g id="text_37">
    <!-- K60 replicate 3 -->
    <g transform="translate(183.923768 438.18226)scale(0.1 -0.1)">
     <use xlink:href="#DejaVuSans-75"/>
     <use x="65.576172" xlink:href="#DejaVuSans-54"/>
     <use x="129.199219" xlink:href="#DejaVuSans-48"/>
     <use x="192.822266" xlink:href="#DejaVuSans-32"/>
     <use x="224.609375" xlink:href="#DejaVuSans-114"/>
     <use x="265.691406" xlink:href="#DejaVuSans-101"/>
     <use x="327.214844" xlink:href="#DejaVuSans-112"/>
     <use x="390.691406" xlink:href="#DejaVuSans-108"/>
     <use x="418.474609" xlink:href="#DejaVuSans-105"/>
     <use x="446.257812" xlink:href="#DejaVuSans-99"/>
     <use x="501.238281" xlink:href="#DejaVuSans-97"/>
     <use x="562.517578" xlink:href="#DejaVuSans-116"/>
     <use x="601.726562" xlink:href="#DejaVuSans-101"/>
     <use x="663.25" xlink:href="#DejaVuSans-32"/>
     <use x="695.037109" xlink:href="#DejaVuSans-51"/>
    </g>
   </g>
   <g id="text_38">
    <!-- CFBP2957 replicate 1 -->
    <defs>
     <path d="M 9.8125 72.90625 
L 51.703125 72.90625 
L 51.703125 64.59375 
L 19.671875 64.59375 
L 19.671875 43.109375 
L 48.578125 43.109375 
L 48.578125 34.8125 
L 19.671875 34.8125 
L 19.671875 0 
L 9.8125 0 
z
" id="DejaVuSans-70"/>
     <path d="M 19.671875 34.8125 
L 19.671875 8.109375 
L 35.5 8.109375 
Q 43.453125 8.109375 47.28125 11.40625 
Q 51.125 14.703125 51.125 21.484375 
Q 51.125 28.328125 47.28125 31.5625 
Q 43.453125 34.8125 35.5 34.8125 
z
M 19.671875 64.796875 
L 19.671875 42.828125 
L 34.28125 42.828125 
Q 41.5 42.828125 45.03125 45.53125 
Q 48.578125 48.25 48.578125 53.8125 
Q 48.578125 59.328125 45.03125 62.0625 
Q 41.5 64.796875 34.28125 64.796875 
z
M 9.8125 72.90625 
L 35.015625 72.90625 
Q 46.296875 72.90625 52.390625 68.21875 
Q 58.5 63.53125 58.5 54.890625 
Q 58.5 48.1875 55.375 44.234375 
Q 52.25 40.28125 46.1875 39.3125 
Q 53.46875 37.75 57.5 32.78125 
Q 61.53125 27.828125 61.53125 20.40625 
Q 61.53125 10.640625 54.890625 5.3125 
Q 48.25 0 35.984375 0 
L 9.8125 0 
z
" id="DejaVuSans-66"/>
     <path d="M 10.984375 1.515625 
L 10.984375 10.5 
Q 14.703125 8.734375 18.5 7.8125 
Q 22.3125 6.890625 25.984375 6.890625 
Q 35.75 6.890625 40.890625 13.453125 
Q 46.046875 20.015625 46.78125 33.40625 
Q 43.953125 29.203125 39.59375 26.953125 
Q 35.25 24.703125 29.984375 24.703125 
Q 19.046875 24.703125 12.671875 31.3125 
Q 6.296875 37.9375 6.296875 49.421875 
Q 6.296875 60.640625 12.9375 67.421875 
Q 19.578125 74.21875 30.609375 74.21875 
Q 43.265625 74.21875 49.921875 64.515625 
Q 56.59375 54.828125 56.59375 36.375 
Q 56.59375 19.140625 48.40625 8.859375 
Q 40.234375 -1.421875 26.421875 -1.421875 
Q 22.703125 -1.421875 18.890625 -0.6875 
Q 15.09375 0.046875 10.984375 1.515625 
z
M 30.609375 32.421875 
Q 37.25 32.421875 41.125 36.953125 
Q 45.015625 41.5 45.015625 49.421875 
Q 45.015625 57.28125 41.125 61.84375 
Q 37.25 66.40625 30.609375 66.40625 
Q 23.96875 66.40625 20.09375 61.84375 
Q 16.21875 57.28125 16.21875 49.421875 
Q 16.21875 41.5 20.09375 36.953125 
Q 23.96875 32.421875 30.609375 32.421875 
z
" id="DejaVuSans-57"/>
    </defs>
    <g transform="translate(162.694322 316.063244)scale(0.1 -0.1)">
     <use xlink:href="#DejaVuSans-67"/>
     <use x="69.824219" xlink:href="#DejaVuSans-70"/>
     <use x="127.34375" xlink:href="#DejaVuSans-66"/>
     <use x="195.947266" xlink:href="#DejaVuSans-80"/>
     <use x="256.25" xlink:href="#DejaVuSans-50"/>
     <use x="319.873047" xlink:href="#DejaVuSans-57"/>
     <use x="383.496094" xlink:href="#DejaVuSans-53"/>
     <use x="447.119141" xlink:href="#DejaVuSans-55"/>
     <use x="510.742188" xlink:href="#DejaVuSans-32"/>
     <use x="542.529297" xlink:href="#DejaVuSans-114"/>
     <use x="583.611328" xlink:href="#DejaVuSans-101"/>
     <use x="645.134766" xlink:href="#DejaVuSans-112"/>
     <use x="708.611328" xlink:href="#DejaVuSans-108"/>
     <use x="736.394531" xlink:href="#DejaVuSans-105"/>
     <use x="764.177734" xlink:href="#DejaVuSans-99"/>
     <use x="819.158203" xlink:href="#DejaVuSans-97"/>
     <use x="880.4375" xlink:href="#DejaVuSans-116"/>
     <use x="919.646484" xlink:href="#DejaVuSans-101"/>
     <use x="981.169922" xlink:href="#DejaVuSans-32"/>
     <use x="1012.957031" xlink:href="#DejaVuSans-49"/>
    </g>
   </g>
   <g id="text_39">
    <!-- CFBP2957 replicate 2 -->
    <g transform="translate(164.092398 393.159332)scale(0.1 -0.1)">
     <use xlink:href="#DejaVuSans-67"/>
     <use x="69.824219" xlink:href="#DejaVuSans-70"/>
     <use x="127.34375" xlink:href="#DejaVuSans-66"/>
     <use x="195.947266" xlink:href="#DejaVuSans-80"/>
     <use x="256.25" xlink:href="#DejaVuSans-50"/>
     <use x="319.873047" xlink:href="#DejaVuSans-57"/>
     <use x="383.496094" xlink:href="#DejaVuSans-53"/>
     <use x="447.119141" xlink:href="#DejaVuSans-55"/>
     <use x="510.742188" xlink:href="#DejaVuSans-32"/>
     <use x="542.529297" xlink:href="#DejaVuSans-114"/>
     <use x="583.611328" xlink:href="#DejaVuSans-101"/>
     <use x="645.134766" xlink:href="#DejaVuSans-112"/>
     <use x="708.611328" xlink:href="#DejaVuSans-108"/>
     <use x="736.394531" xlink:href="#DejaVuSans-105"/>
     <use x="764.177734" xlink:href="#DejaVuSans-99"/>
     <use x="819.158203" xlink:href="#DejaVuSans-97"/>
     <use x="880.4375" xlink:href="#DejaVuSans-116"/>
     <use x="919.646484" xlink:href="#DejaVuSans-101"/>
     <use x="981.169922" xlink:href="#DejaVuSans-32"/>
     <use x="1012.957031" xlink:href="#DejaVuSans-50"/>
    </g>
   </g>
   <g id="text_40">
    <!-- CFBP2957 replicate 3 -->
    <g transform="translate(162.400153 378.605286)scale(0.1 -0.1)">
     <use xlink:href="#DejaVuSans-67"/>
     <use x="69.824219" xlink:href="#DejaVuSans-70"/>
     <use x="127.34375" xlink:href="#DejaVuSans-66"/>
     <use x="195.947266" xlink:href="#DejaVuSans-80"/>
     <use x="256.25" xlink:href="#DejaVuSans-50"/>
     <use x="319.873047" xlink:href="#DejaVuSans-57"/>
     <use x="383.496094" xlink:href="#DejaVuSans-53"/>
     <use x="447.119141" xlink:href="#DejaVuSans-55"/>
     <use x="510.742188" xlink:href="#DejaVuSans-32"/>
     <use x="542.529297" xlink:href="#DejaVuSans-114"/>
     <use x="583.611328" xlink:href="#DejaVuSans-101"/>
     <use x="645.134766" xlink:href="#DejaVuSans-112"/>
     <use x="708.611328" xlink:href="#DejaVuSans-108"/>
     <use x="736.394531" xlink:href="#DejaVuSans-105"/>
     <use x="764.177734" xlink:href="#DejaVuSans-99"/>
     <use x="819.158203" xlink:href="#DejaVuSans-97"/>
     <use x="880.4375" xlink:href="#DejaVuSans-116"/>
     <use x="919.646484" xlink:href="#DejaVuSans-101"/>
     <use x="981.169922" xlink:href="#DejaVuSans-32"/>
     <use x="1012.957031" xlink:href="#DejaVuSans-51"/>
    </g>
   </g>
   <g id="text_41">
    <!-- BA7 replicate 1 -->
    <defs>
     <path d="M 34.1875 63.1875 
L 20.796875 26.90625 
L 47.609375 26.90625 
z
M 28.609375 72.90625 
L 39.796875 72.90625 
L 67.578125 0 
L 57.328125 0 
L 50.6875 18.703125 
L 17.828125 18.703125 
L 11.1875 0 
L 0.78125 0 
z
" id="DejaVuSans-65"/>
    </defs>
    <g transform="translate(95.647947 90.571047)scale(0.1 -0.1)">
     <use xlink:href="#DejaVuSans-66"/>
     <use x="68.603516" xlink:href="#DejaVuSans-65"/>
     <use x="137.011719" xlink:href="#DejaVuSans-55"/>
     <use x="200.634766" xlink:href="#DejaVuSans-32"/>
     <use x="232.421875" xlink:href="#DejaVuSans-114"/>
     <use x="273.503906" xlink:href="#DejaVuSans-101"/>
     <use x="335.027344" xlink:href="#DejaVuSans-112"/>
     <use x="398.503906" xlink:href="#DejaVuSans-108"/>
     <use x="426.287109" xlink:href="#DejaVuSans-105"/>
     <use x="454.070312" xlink:href="#DejaVuSans-99"/>
     <use x="509.050781" xlink:href="#DejaVuSans-97"/>
     <use x="570.330078" xlink:href="#DejaVuSans-116"/>
     <use x="609.539062" xlink:href="#DejaVuSans-101"/>
     <use x="671.0625" xlink:href="#DejaVuSans-32"/>
     <use x="702.849609" xlink:href="#DejaVuSans-49"/>
    </g>
   </g>
   <g id="text_42">
    <!-- BA7 replicate 2 -->
    <g transform="translate(436.052801 99.045766)scale(0.1 -0.1)">
     <use xlink:href="#DejaVuSans-66"/>
     <use x="68.603516" xlink:href="#DejaVuSans-65"/>
     <use x="137.011719" xlink:href="#DejaVuSans-55"/>
     <use x="200.634766" xlink:href="#DejaVuSans-32"/>
     <use x="232.421875" xlink:href="#DejaVuSans-114"/>
     <use x="273.503906" xlink:href="#DejaVuSans-101"/>
     <use x="335.027344" xlink:href="#DejaVuSans-112"/>
     <use x="398.503906" xlink:href="#DejaVuSans-108"/>
     <use x="426.287109" xlink:href="#DejaVuSans-105"/>
     <use x="454.070312" xlink:href="#DejaVuSans-99"/>
     <use x="509.050781" xlink:href="#DejaVuSans-97"/>
     <use x="570.330078" xlink:href="#DejaVuSans-116"/>
     <use x="609.539062" xlink:href="#DejaVuSans-101"/>
     <use x="671.0625" xlink:href="#DejaVuSans-32"/>
     <use x="702.849609" xlink:href="#DejaVuSans-50"/>
    </g>
   </g>
   <g id="text_43">
    <!-- BA7 replicate 3 -->
    <g transform="translate(82.757193 50.482707)scale(0.1 -0.1)">
     <use xlink:href="#DejaVuSans-66"/>
     <use x="68.603516" xlink:href="#DejaVuSans-65"/>
     <use x="137.011719" xlink:href="#DejaVuSans-55"/>
     <use x="200.634766" xlink:href="#DejaVuSans-32"/>
     <use x="232.421875" xlink:href="#DejaVuSans-114"/>
     <use x="273.503906" xlink:href="#DejaVuSans-101"/>
     <use x="335.027344" xlink:href="#DejaVuSans-112"/>
     <use x="398.503906" xlink:href="#DejaVuSans-108"/>
     <use x="426.287109" xlink:href="#DejaVuSans-105"/>
     <use x="454.070312" xlink:href="#DejaVuSans-99"/>
     <use x="509.050781" xlink:href="#DejaVuSans-97"/>
     <use x="570.330078" xlink:href="#DejaVuSans-116"/>
     <use x="609.539062" xlink:href="#DejaVuSans-101"/>
     <use x="671.0625" xlink:href="#DejaVuSans-32"/>
     <use x="702.849609" xlink:href="#DejaVuSans-51"/>
    </g>
   </g>
   <g id="text_44">
    <!-- BDBR229 replicate 1 -->
    <defs>
     <path d="M 19.671875 64.796875 
L 19.671875 8.109375 
L 31.59375 8.109375 
Q 46.6875 8.109375 53.6875 14.9375 
Q 60.6875 21.78125 60.6875 36.53125 
Q 60.6875 51.171875 53.6875 57.984375 
Q 46.6875 64.796875 31.59375 64.796875 
z
M 9.8125 72.90625 
L 30.078125 72.90625 
Q 51.265625 72.90625 61.171875 64.09375 
Q 71.09375 55.28125 71.09375 36.53125 
Q 71.09375 17.671875 61.125 8.828125 
Q 51.171875 0 30.078125 0 
L 9.8125 0 
z
" id="DejaVuSans-68"/>
    </defs>
    <g transform="translate(161.769151 311.049842)scale(0.1 -0.1)">
     <use xlink:href="#DejaVuSans-66"/>
     <use x="68.603516" xlink:href="#DejaVuSans-68"/>
     <use x="145.605469" xlink:href="#DejaVuSans-66"/>
     <use x="214.208984" xlink:href="#DejaVuSans-82"/>
     <use x="283.691406" xlink:href="#DejaVuSans-50"/>
     <use x="347.314453" xlink:href="#DejaVuSans-50"/>
     <use x="410.9375" xlink:href="#DejaVuSans-57"/>
     <use x="474.560547" xlink:href="#DejaVuSans-32"/>
     <use x="506.347656" xlink:href="#DejaVuSans-114"/>
     <use x="547.429688" xlink:href="#DejaVuSans-101"/>
     <use x="608.953125" xlink:href="#DejaVuSans-112"/>
     <use x="672.429688" xlink:href="#DejaVuSans-108"/>
     <use x="700.212891" xlink:href="#DejaVuSans-105"/>
     <use x="727.996094" xlink:href="#DejaVuSans-99"/>
     <use x="782.976562" xlink:href="#DejaVuSans-97"/>
     <use x="844.255859" xlink:href="#DejaVuSans-116"/>
     <use x="883.464844" xlink:href="#DejaVuSans-101"/>
     <use x="944.988281" xlink:href="#DejaVuSans-32"/>
     <use x="976.775391" xlink:href="#DejaVuSans-49"/>
    </g>
   </g>
   <g id="text_45">
    <!-- BDBR229 replicate 2 -->
    <g transform="translate(512.528675 366.344853)scale(0.1 -0.1)">
     <use xlink:href="#DejaVuSans-66"/>
     <use x="68.603516" xlink:href="#DejaVuSans-68"/>
     <use x="145.605469" xlink:href="#DejaVuSans-66"/>
     <use x="214.208984" xlink:href="#DejaVuSans-82"/>
     <use x="283.691406" xlink:href="#DejaVuSans-50"/>
     <use x="347.314453" xlink:href="#DejaVuSans-50"/>
     <use x="410.9375" xlink:href="#DejaVuSans-57"/>
     <use x="474.560547" xlink:href="#DejaVuSans-32"/>
     <use x="506.347656" xlink:href="#DejaVuSans-114"/>
     <use x="547.429688" xlink:href="#DejaVuSans-101"/>
     <use x="608.953125" xlink:href="#DejaVuSans-112"/>
     <use x="672.429688" xlink:href="#DejaVuSans-108"/>
     <use x="700.212891" xlink:href="#DejaVuSans-105"/>
     <use x="727.996094" xlink:href="#DejaVuSans-99"/>
     <use x="782.976562" xlink:href="#DejaVuSans-97"/>
     <use x="844.255859" xlink:href="#DejaVuSans-116"/>
     <use x="883.464844" xlink:href="#DejaVuSans-101"/>
     <use x="944.988281" xlink:href="#DejaVuSans-32"/>
     <use x="976.775391" xlink:href="#DejaVuSans-50"/>
    </g>
   </g>
   <g id="text_46">
    <!-- BDBR229 replicate 3 -->
    <g transform="translate(168.390012 282.987998)scale(0.1 -0.1)">
     <use xlink:href="#DejaVuSans-66"/>
     <use x="68.603516" xlink:href="#DejaVuSans-68"/>
     <use x="145.605469" xlink:href="#DejaVuSans-66"/>
     <use x="214.208984" xlink:href="#DejaVuSans-82"/>
     <use x="283.691406" xlink:href="#DejaVuSans-50"/>
     <use x="347.314453" xlink:href="#DejaVuSans-50"/>
     <use x="410.9375" xlink:href="#DejaVuSans-57"/>
     <use x="474.560547" xlink:href="#DejaVuSans-32"/>
     <use x="506.347656" xlink:href="#DejaVuSans-114"/>
     <use x="547.429688" xlink:href="#DejaVuSans-101"/>
     <use x="608.953125" xlink:href="#DejaVuSans-112"/>
     <use x="672.429688" xlink:href="#DejaVuSans-108"/>
     <use x="700.212891" xlink:href="#DejaVuSans-105"/>
     <use x="727.996094" xlink:href="#DejaVuSans-99"/>
     <use x="782.976562" xlink:href="#DejaVuSans-97"/>
     <use x="844.255859" xlink:href="#DejaVuSans-116"/>
     <use x="883.464844" xlink:href="#DejaVuSans-101"/>
     <use x="944.988281" xlink:href="#DejaVuSans-32"/>
     <use x="976.775391" xlink:href="#DejaVuSans-51"/>
    </g>
   </g>
  </g>
  <g id="legend_1">
   <g id="text_47">
    <!-- Phylotype -->
    <defs>
     <path d="M 54.890625 33.015625 
L 54.890625 0 
L 45.90625 0 
L 45.90625 32.71875 
Q 45.90625 40.484375 42.875 44.328125 
Q 39.84375 48.1875 33.796875 48.1875 
Q 26.515625 48.1875 22.3125 43.546875 
Q 18.109375 38.921875 18.109375 30.90625 
L 18.109375 0 
L 9.078125 0 
L 9.078125 75.984375 
L 18.109375 75.984375 
L 18.109375 46.1875 
Q 21.34375 51.125 25.703125 53.5625 
Q 30.078125 56 35.796875 56 
Q 45.21875 56 50.046875 50.171875 
Q 54.890625 44.34375 54.890625 33.015625 
z
" id="DejaVuSans-104"/>
     <path d="M 32.171875 -5.078125 
Q 28.375 -14.84375 24.75 -17.8125 
Q 21.140625 -20.796875 15.09375 -20.796875 
L 7.90625 -20.796875 
L 7.90625 -13.28125 
L 13.1875 -13.28125 
Q 16.890625 -13.28125 18.9375 -11.515625 
Q 21 -9.765625 23.484375 -3.21875 
L 25.09375 0.875 
L 2.984375 54.6875 
L 12.5 54.6875 
L 29.59375 11.921875 
L 46.6875 54.6875 
L 56.203125 54.6875 
z
" id="DejaVuSans-121"/>
     <path d="M 30.609375 48.390625 
Q 23.390625 48.390625 19.1875 42.75 
Q 14.984375 37.109375 14.984375 27.296875 
Q 14.984375 17.484375 19.15625 11.84375 
Q 23.34375 6.203125 30.609375 6.203125 
Q 37.796875 6.203125 41.984375 11.859375 
Q 46.1875 17.53125 46.1875 27.296875 
Q 46.1875 37.015625 41.984375 42.703125 
Q 37.796875 48.390625 30.609375 48.390625 
z
M 30.609375 56 
Q 42.328125 56 49.015625 48.375 
Q 55.71875 40.765625 55.71875 27.296875 
Q 55.71875 13.875 49.015625 6.21875 
Q 42.328125 -1.421875 30.609375 -1.421875 
Q 18.84375 -1.421875 12.171875 6.21875 
Q 5.515625 13.875 5.515625 27.296875 
Q 5.515625 40.765625 12.171875 48.375 
Q 18.84375 56 30.609375 56 
z
" id="DejaVuSans-111"/>
    </defs>
    <g transform="translate(575.066563 254.064063)scale(0.1 -0.1)">
     <use xlink:href="#DejaVuSans-80"/>
     <use x="60.302734" xlink:href="#DejaVuSans-104"/>
     <use x="123.681641" xlink:href="#DejaVuSans-121"/>
     <use x="182.861328" xlink:href="#DejaVuSans-108"/>
     <use x="210.644531" xlink:href="#DejaVuSans-111"/>
     <use x="271.826172" xlink:href="#DejaVuSans-116"/>
     <use x="311.035156" xlink:href="#DejaVuSans-121"/>
     <use x="370.214844" xlink:href="#DejaVuSans-112"/>
     <use x="433.691406" xlink:href="#DejaVuSans-101"/>
    </g>
   </g>
   <g id="PathCollection_6">
    <g>
     <use style="fill:#32cd32;fill-opacity:0.8;stroke:#32cd32;stroke-opacity:0.8;" x="589.447813" xlink:href="#m62ce7396fa" y="266.117188"/>
    </g>
   </g>
   <g id="text_48">
    <!-- IIB -->
    <g transform="translate(607.447813 268.742188)scale(0.1 -0.1)">
     <use xlink:href="#DejaVuSans-73"/>
     <use x="29.492188" xlink:href="#DejaVuSans-73"/>
     <use x="58.984375" xlink:href="#DejaVuSans-66"/>
    </g>
   </g>
   <g id="PathCollection_7">
    <g>
     <use style="fill:#ffc0cb;fill-opacity:0.8;stroke:#ffc0cb;stroke-opacity:0.8;" x="589.447813" xlink:href="#m60da87bf32" y="280.795313"/>
    </g>
   </g>
   <g id="text_49">
    <!-- III -->
    <g transform="translate(607.447813 283.420313)scale(0.1 -0.1)">
     <use xlink:href="#DejaVuSans-73"/>
     <use x="29.492188" xlink:href="#DejaVuSans-73"/>
     <use x="58.984375" xlink:href="#DejaVuSans-73"/>
    </g>
   </g>
   <g id="PathCollection_8">
    <g>
     <use style="fill:#ffd700;fill-opacity:0.8;stroke:#ffd700;stroke-opacity:0.8;" x="589.447813" xlink:href="#m963a26569f" y="295.473438"/>
    </g>
   </g>
   <g id="text_50">
    <!-- IV -->
    <defs>
     <path d="M 28.609375 0 
L 0.78125 72.90625 
L 11.078125 72.90625 
L 34.1875 11.53125 
L 57.328125 72.90625 
L 67.578125 72.90625 
L 39.796875 0 
z
" id="DejaVuSans-86"/>
    </defs>
    <g transform="translate(607.447813 298.098438)scale(0.1 -0.1)">
     <use xlink:href="#DejaVuSans-73"/>
     <use x="29.492188" xlink:href="#DejaVuSans-86"/>
    </g>
   </g>
   <g id="PathCollection_9">
    <g>
     <use style="fill:#b22222;fill-opacity:0.8;stroke:#b22222;stroke-opacity:0.8;" x="589.447813" xlink:href="#m9daea5aa50" y="310.151563"/>
    </g>
   </g>
   <g id="text_51">
    <!-- I -->
    <g transform="translate(607.447813 312.776563)scale(0.1 -0.1)">
     <use xlink:href="#DejaVuSans-73"/>
    </g>
   </g>
   <g id="PathCollection_10">
    <g>
     <use style="fill:#00ced1;fill-opacity:0.8;stroke:#00ced1;stroke-opacity:0.8;" x="589.447813" xlink:href="#m76bda49e25" y="324.829688"/>
    </g>
   </g>
   <g id="text_52">
    <!-- IIA -->
    <g transform="translate(607.447813 327.454688)scale(0.1 -0.1)">
     <use xlink:href="#DejaVuSans-73"/>
     <use x="29.492188" xlink:href="#DejaVuSans-73"/>
     <use x="58.984375" xlink:href="#DejaVuSans-65"/>
    </g>
   </g>
  </g>
 </g>
 <defs>
  <clipPath id="p2364095c13">
   <rect height="520.72" width="511.431019" x="58.233081" y="13.32"/>
  </clipPath>
 </defs>
</svg>
